<svg width="84" height="81" viewBox="0 0 84 81" fill="none" xmlns="http://www.w3.org/2000/svg">
<ellipse cx="41.685" cy="40.2591" rx="41.685" ry="40.2591" fill="#E0DFDF"/>
<g clip-path="url(#clip0)">
<g clip-path="url(#clip1)">
<path d="M55.8856 26.544C51.9865 22.7782 46.8023 20.7043 41.288 20.7043C35.7738 20.7043 30.5896 22.7782 26.6905 26.544C22.7914 30.3098 20.644 35.3166 20.644 40.6422C20.644 45.9678 22.7914 50.9745 26.6905 54.7403C30.5896 58.5061 35.7738 60.58 41.288 60.58C46.8023 60.58 51.9865 58.5061 55.8856 54.7403C59.7847 50.9745 61.9321 45.9678 61.9321 40.6422C61.9321 35.3166 59.7847 30.3098 55.8856 26.544ZM41.288 59.3073C30.6314 59.3073 21.9617 50.9342 21.9617 40.6422C21.9617 30.3501 30.6314 21.977 41.288 21.977C51.9447 21.977 60.6144 30.3501 60.6144 40.6422C60.6144 50.9342 51.9447 59.3073 41.288 59.3073Z" fill="#F30000"/>
<path d="M41.2881 23.2495C31.3581 23.2495 23.2795 31.0518 23.2795 40.6421C23.2795 50.2323 31.3581 58.0346 41.2881 58.0346C51.2182 58.0346 59.2967 50.2323 59.2967 40.6421C59.2967 31.0518 51.2182 23.2495 41.2881 23.2495ZM41.2881 56.762C32.0848 56.762 24.5972 49.5307 24.5972 40.6421C24.5972 31.7535 32.0848 24.5221 41.2881 24.5221C50.4915 24.5221 57.979 31.7535 57.979 40.6421C57.979 49.5307 50.4915 56.762 41.2881 56.762Z" fill="#F30000"/>
<path d="M53.1446 34.0953C53.1365 34.0785 53.1279 34.0618 53.1182 34.0454C53.1062 34.0255 53.0933 34.0066 53.0796 33.9883C51.8929 32.0342 50.2007 30.3999 48.1773 29.2537C48.1585 29.2405 48.1388 29.2279 48.1182 29.2165C48.1012 29.2071 48.084 29.1988 48.0666 29.1909C46.0679 28.0831 43.7533 27.449 41.2881 27.449C38.8229 27.449 36.5082 28.0831 34.5094 29.1911C34.4921 29.1989 34.4749 29.2072 34.458 29.2165C34.4374 29.228 34.4178 29.2405 34.3989 29.2537C32.3755 30.3999 30.6833 32.0342 29.4966 33.9883C29.4829 34.0065 29.4699 34.0255 29.458 34.0454C29.4483 34.0618 29.4397 34.0785 29.4316 34.0953C28.2845 36.0256 27.6279 38.261 27.6279 40.6419C27.6279 42.9591 28.2617 45.2399 29.4616 47.2393C29.4954 47.2953 29.81 47.7766 30.4418 47.4245L32.26 46.4108C32.5751 46.2351 32.6831 45.8459 32.5011 45.5416C32.3192 45.2372 31.9163 45.1331 31.6012 45.3087C31.6012 45.3087 30.8445 45.7306 30.2864 46.0418C29.5069 44.5644 29.0562 42.939 28.9642 41.2783H30.483C30.8468 41.2783 31.1418 40.9935 31.1418 40.642C31.1418 40.2905 30.8468 40.0056 30.483 40.0056H28.9633C29.0567 38.2987 29.5237 36.686 30.2864 35.2421L31.6012 35.9752C31.7049 36.0331 31.8182 36.0606 31.93 36.0606C32.1577 36.0606 32.3791 35.9465 32.5011 35.7423C32.6831 35.438 32.5751 35.0488 32.26 34.8731L30.9476 34.1414C31.8872 32.7519 33.1185 31.5627 34.5572 30.6552L35.3149 31.9227C35.4369 32.1268 35.6584 32.2409 35.8861 32.2409C35.9978 32.2409 36.1111 32.2134 36.2149 32.1556C36.53 31.9799 36.6379 31.5907 36.456 31.2864L35.6969 30.0166C37.1918 29.2799 38.8618 28.8289 40.6291 28.7387V30.2063C40.6291 30.5578 40.9241 30.8426 41.2879 30.8426C41.6518 30.8426 41.9468 30.5578 41.9468 30.2063V28.7387C43.7142 28.8288 45.3841 29.2799 46.8789 30.0165L46.1199 31.2863C45.9379 31.5906 46.0459 31.9798 46.361 32.1555C46.4648 32.2133 46.5781 32.2408 46.6898 32.2408C46.9175 32.2408 47.139 32.1267 47.261 31.9226L48.0187 30.6551C49.4573 31.5627 50.6887 32.7518 51.6283 34.1413L50.3159 34.8731C50.0008 35.0488 49.8928 35.4379 50.0747 35.7423C50.1967 35.9464 50.4182 36.0605 50.6459 36.0605C50.7576 36.0605 50.871 36.033 50.9747 35.9751L52.2894 35.242C53.0522 36.6858 53.5191 38.2986 53.6126 40.0056H52.0933C51.7294 40.0056 51.4344 40.2904 51.4344 40.6419C51.4344 40.9934 51.7294 41.2782 52.0933 41.2782H53.6121C53.5201 42.9378 53.07 44.5635 52.2915 46.0426L50.9752 45.3086C50.66 45.1329 50.2571 45.2371 50.0752 45.5415C49.8932 45.8458 50.0012 46.235 50.3163 46.4107L52.2183 47.4712C52.322 47.5291 52.4353 47.5566 52.5471 47.5566C52.7746 47.5566 52.996 47.4425 53.1181 47.2386C54.3154 45.238 54.9484 42.9569 54.9484 40.6419C54.9483 38.261 54.2917 36.0256 53.1446 34.0953Z" fill="#F30000"/>
<path d="M43.5332 36.7521C43.2153 36.5816 42.8147 36.6918 42.6378 36.9985L41.6204 38.7605C41.5123 38.7428 41.4016 38.7331 41.2883 38.7331C40.1984 38.7331 39.3118 39.5895 39.3118 40.642C39.3118 40.7611 39.3237 40.8775 39.3454 40.9906L33.8837 44.0361C33.5686 44.2118 33.4606 44.601 33.6426 44.9053C33.7646 45.1094 33.9861 45.2235 34.2138 45.2235C34.3255 45.2235 34.4388 45.1961 34.5426 45.1382L40.0052 42.0922C40.3508 42.3779 40.7989 42.5509 41.2884 42.5509C42.137 42.5509 42.8622 42.0317 43.1418 41.305L45.2304 41.3351C45.2337 41.3352 45.2371 41.3352 45.2404 41.3352C45.5992 41.3352 45.893 41.0571 45.899 40.7094C45.9128 39.9059 45.6996 39.1126 45.2825 38.4148C44.8654 37.7173 44.2605 37.1424 43.5332 36.7521ZM41.2883 41.2784C40.925 41.2784 40.6295 40.993 40.6295 40.6421C40.6295 40.2912 40.925 40.0058 41.2883 40.0058C41.4027 40.0058 41.5104 40.0342 41.6042 40.0839C41.6059 40.0848 41.6073 40.0859 41.609 40.0868C41.8108 40.1962 41.9472 40.4039 41.9472 40.6421C41.9472 40.6448 41.9468 40.6475 41.9467 40.6502C41.9412 40.9982 41.6482 41.2784 41.2883 41.2784ZM43.161 40.0327C43.0761 39.7902 42.9423 39.5693 42.7707 39.3813L43.4358 38.2295C43.7158 38.4617 43.9548 38.7393 44.1413 39.0513C44.3277 39.3633 44.4571 39.702 44.5254 40.0523L43.161 40.0327Z" fill="#F30000"/>
<path d="M43.5852 52.5625H38.9914C38.6275 52.5625 38.3325 52.8473 38.3325 53.1988C38.3325 53.5503 38.6275 53.8351 38.9914 53.8351H43.5852C43.9491 53.8351 44.2441 53.5503 44.2441 53.1988C44.2441 52.8473 43.9491 52.5625 43.5852 52.5625Z" fill="#F30000"/>
<path d="M42.7067 51.29C43.0706 51.29 43.3656 51.0051 43.3656 50.6536C43.3656 50.3021 43.0706 50.0173 42.7067 50.0173H39.8698C39.5059 50.0173 39.2109 50.3021 39.2109 50.6536C39.2109 51.0051 39.5059 51.29 39.8698 51.29H42.7067Z" fill="#F30000"/>
</g>
</g>
<defs>
<clipPath id="clip0">
<rect width="41.4206" height="40.0037" fill="white" transform="translate(20.644 20.7043)"/>
</clipPath>
<clipPath id="clip1">
<rect width="41.288" height="39.8756" fill="white" transform="translate(20.644 20.7043)"/>
</clipPath>
</defs>
</svg>
