<svg width="84" height="81" viewBox="0 0 84 81" fill="none" xmlns="http://www.w3.org/2000/svg">
<ellipse cx="41.685" cy="40.2591" rx="41.685" ry="40.2591" fill="#E0DFDF"/>
<g clip-path="url(#clip0)">
<path d="M60.0797 35.1474H55.1672V32.9105C55.1672 31.8538 54.2771 30.9934 53.1822 30.9934H22.629C21.5341 30.9934 20.644 31.8538 20.644 32.9105V48.5027C20.644 49.5594 21.5341 50.4198 22.629 50.4198H53.1822C54.2771 50.4198 55.1672 49.5594 55.1672 48.5027V46.2666H60.0797C61.1746 46.2666 62.0647 45.4062 62.0647 44.3495V37.0645C62.0647 36.0078 61.1746 35.1474 60.0797 35.1474ZM52.7852 48.12H23.026V33.2939H52.7852V37.0645V44.3495V48.12ZM59.6827 43.966H55.1672V37.4479H59.6827V43.966V43.966Z" fill="#F30000"/>
<path d="M29.776 34.7639H24.615C24.3959 34.7639 24.218 34.9357 24.218 35.1473V46.2665C24.218 46.4782 24.3959 46.6499 24.615 46.6499H29.776C29.9952 46.6499 30.173 46.4782 30.173 46.2665V35.1473C30.173 34.9357 29.9952 34.7639 29.776 34.7639ZM29.379 45.8831H25.012V35.5308H29.379V45.8831Z" fill="#F30000"/>
<path d="M36.7894 34.7639H31.6284C31.4093 34.7639 31.2314 34.9357 31.2314 35.1473V46.2665C31.2314 46.4782 31.4093 46.6499 31.6284 46.6499H36.7894C37.0086 46.6499 37.1864 46.4782 37.1864 46.2665V35.1473C37.1864 34.9357 37.0086 34.7639 36.7894 34.7639ZM36.3924 45.8831H32.0254V35.5308H36.3924V45.8831Z" fill="#F30000"/>
<path d="M43.8026 34.7639H38.6416C38.4225 34.7639 38.2446 34.9357 38.2446 35.1473V46.2665C38.2446 46.4782 38.4225 46.6499 38.6416 46.6499H43.8026C44.0218 46.6499 44.1996 46.4782 44.1996 46.2665V35.1473C44.1996 34.9357 44.0218 34.7639 43.8026 34.7639ZM43.4056 45.8831H39.0386V35.5308H43.4056V45.8831Z" fill="#F30000"/>
<path d="M50.8163 34.7639H45.6553C45.4362 34.7639 45.2583 34.9357 45.2583 35.1473V46.2665C45.2583 46.4782 45.4362 46.6499 45.6553 46.6499H50.8163C51.0354 46.6499 51.2133 46.4782 51.2133 46.2665V35.1473C51.2133 34.9357 51.0354 34.7639 50.8163 34.7639ZM50.4193 45.8831H46.0523V35.5308H50.4193V45.8831Z" fill="#F30000"/>
</g>
<defs>
<clipPath id="clip0">
<rect width="41.4206" height="40.0037" fill="white" transform="translate(20.644 20.7046)"/>
</clipPath>
</defs>
</svg>
