<svg width="166" height="164" viewBox="0 0 166 164" fill="none" xmlns="http://www.w3.org/2000/svg">
<ellipse cx="82.8769" cy="81.8242" rx="82.8769" ry="81.8242" fill="#E0DFDF"/>
<g clip-path="url(#clip0)">
<g clip-path="url(#clip1)">
<g clip-path="url(#clip2)">
<path fill-rule="evenodd" clip-rule="evenodd" d="M70.9141 58.4835V57.5919V57.1956L70.2261 56.403L69.3088 55.3133L68.9648 54.8179L67.5887 55.6105L66.442 55.7096L65.9833 55.4124L65.754 54.8179L65.8687 54.3721L65.5247 54.2235V53.8768V53.6787L64.9513 53.0842L65.066 52.787L65.1233 52.6384L64.8366 52.5394L64.4926 52.4898L64.206 52.3908V51.7468L64.4353 51.3506L64.8366 50.8552L65.066 49.5673L65.0086 47.9822L65.2953 47.3878L65.8113 46.8925L65.8687 45.7532L65.9833 45.6046L66.442 45.4065L67.4167 43.97L68.3914 43.0783L69.7674 42.583L70.7995 42.6821L72.4049 43.3756L73.9529 44.2176L72.4049 44.069L70.5701 43.8214L69.9395 44.2672L72.7489 44.3662L73.7809 44.9111L74.7556 44.8616L75.9023 44.3167L77.3357 45.0102L77.6797 46.5457V46.942L78.9984 48.1804L79.7437 49.7159L80.8331 51.202L82.2091 52.6384L83.1265 53.8273L83.1838 54.9666L82.8972 55.6105V54.5207L82.2091 53.431L81.1771 52.4898L79.9731 51.301L80.3744 52.6384L80.2598 54.9666L79.8584 56.2544L81.2918 56.1058L70.9141 58.4835Z" fill="#F30000" stroke="#F30000" stroke-width="0.260562"/>
<path fill-rule="evenodd" clip-rule="evenodd" d="M81.1771 55.9585L82.4385 56.1071L83.2412 56.5034L84.6172 57.1473L85.8212 57.9399L86.1079 58.0885L87.7133 58.3857L88.6307 58.5838L89.6054 59.1287L90.9814 59.624L92.4148 60.268L93.8481 60.6147L94.9948 61.1101L95.7975 61.8035L96.2562 62.1007L96.4282 62.8437L96.3709 63.2896C96.3709 63.2896 95.6255 63.8344 95.2815 64.5279L94.9375 65.2214L94.1922 65.6177L92.0708 67.5L90.5227 68.7879L88.86 69.9767L86.9106 71.4132L86.6239 71.3636L85.8212 72.1562L85.1332 72.8001L83.9865 73.1964H83.1838C83.1838 73.1964 82.4571 73.2817 82.2091 73.0973C82.044 72.9745 82.0371 72.5524 82.0371 72.5524C82.0371 72.5524 81.3237 72.653 81.1198 72.4534C80.9806 72.3172 81.1198 71.9085 81.1198 71.9085L80.8904 71.7104L80.9478 71.0169L80.3744 70.6206L82.3238 69.3823L81.6931 69.2832L80.7471 69.6795L80.5464 69.7785H80.5178L80.6038 69.1346L81.2918 68.3916L82.1518 68.243L83.9292 69.0355L85.0759 69.1841L86.9106 67.6486L88.6307 66.113L89.6054 64.3298L90.1214 63.4877L90.064 63.0419L89.6627 62.9923L86.7959 62.7942L84.2159 62.1007L82.9545 61.754H82.6678L82.0945 62.8437L81.6358 64.6765L81.4638 64.9737L81.7505 65.2709L81.4638 65.8158L81.1198 67.7476L80.7758 68.6888L80.4891 71.6113L80.6611 73.1964L81.5785 75.0292C81.5785 75.0292 83.3426 77.5338 84.1012 78.8433C84.3809 79.3261 84.6459 79.8181 84.8466 80.3293C85.049 80.8451 85.286 81.37 85.3052 81.9144C85.3307 82.6362 84.8466 84.0444 84.8466 84.0444L70.8568 83.9453L72.4622 81.6172L72.1182 80.9237L71.7742 79.933L70.9715 78.5956L70.0541 77.9517L70.5128 75.2273L69.7101 73.5927L68.9074 71.7599L69.0221 69.5804L66.9007 67.7476L65.6393 69.0355L64.378 69.9271L63.4033 71.0169L62.8299 71.4627L61.6832 71.859L60.8232 71.9085L60.1352 71.3636L58.7018 69.4813L57.7844 68.0448L56.3511 64.8251L55.7777 63.4382L55.319 62.1998L55.0897 61.6054L54.3443 60.7138L54.0003 59.7726L53.6563 59.1287L53.771 57.9894L54.115 57.9399L54.459 58.1875V57.5931L54.6883 57.3455L55.147 57.1473L55.4337 56.7015L55.7204 56.4043H56.0071L56.3511 56.6024L56.6951 56.2062H57.0391L57.2684 56.2557L57.3831 57.1473L57.7271 56.8006L57.8418 56.1566H58.3004L58.4725 56.751V57.1473L58.9885 57.4445V58.3857L59.0458 59.2773L58.7591 60.1194L58.3578 61.1596L58.2431 61.8035L59.1605 63.9335L60.4792 65.9149L61.5112 67.1037L62.0846 67.4504L63.1739 65.9149L64.206 64.3793L65.8113 63.0914L66.614 62.5465L67.1874 60.8128L68.3914 59.5745L69.3661 58.9305L70.6848 58.1875L81.1771 55.9585Z" fill="#F30000" stroke="#F30000" stroke-width="0.260562"/>
<path fill-rule="evenodd" clip-rule="evenodd" d="M84.7891 83.8458L84.7317 84.7374L85.0184 85.8272L85.7638 86.8674L87.3118 88.2048L88.2292 89.4927L88.5732 90.5329L89.2612 92.2171L89.5479 93.2078L91.2679 95.1891L92.3 95.734L94.02 95.1396L95.8547 94.3471C95.8547 94.3471 96.5503 93.9514 96.9441 93.8517C97.5884 93.6887 98.9508 93.7031 98.9508 93.7031H100.499L103.251 93.9013H106.29L109.73 94.2975L110.876 93.0592L112.883 91.5236L113.629 90.632H114.145L115.635 91.7218L117.871 93.7527L118.215 94.7434L118.387 95.3378L118.903 96.0312L119.706 96.2294L121.426 98.0126L122.515 99.7463L122.688 100.787V101.876L122.171 102.817L120.91 102.718L120.165 102.421L119.821 101.629L119.362 101.232L118.502 100.638L117.241 100.44L115.406 100.192H114.087L112.826 98.5079L110.188 98.4089L108.067 98.3098H106.118L102.792 98.9042L100.614 99.4986L99.2375 99.7958L97.9761 99.8454L96.2561 100.143L93.5613 100.787L92.0706 101.133L90.5226 101.777C90.5226 101.777 89.7653 101.961 89.3759 101.975C89.203 101.982 89.018 101.987 88.8599 101.926C88.6496 101.845 88.5127 101.665 88.3438 101.53C87.7984 101.093 86.7385 100.192 86.7385 100.192L84.9611 98.607L83.1264 96.8733L81.4063 95.2387L79.9156 93.8022L78.7116 92.3162L78.2529 91.4741L77.7942 90.9292L76.7048 92.2666L75.2715 94.0003L73.9528 95.3378L72.462 96.378L71.2007 97.5668L70.226 98.7556L69.0219 99.6968L68.2766 100.341L67.9899 101.678L67.8753 103.61L67.7032 105.591L67.3592 106.681L66.6139 108.316L65.4098 109.752L64.2631 111.09L62.8298 112.873L61.5111 114.408L60.5364 116.043L59.963 117.48L60.5937 117.777L60.3644 118.916L59.6763 119.808L59.2177 120.996L59.103 121.739L58.5296 122.631L57.4976 122.681L55.6629 122.185L53.6562 121.195L53.0255 120.6L51.7641 120.551L50.2734 120.105L48.3814 118.916L46.8906 117.034L46.3173 115.696L46.432 114.507L47.0053 114.012H47.7507L49.356 114.953L50.7321 114.904L52.7961 113.963L53.8282 113.864L55.1469 114.607L55.9496 113.963L56.6949 114.21L58.071 111.981L59.275 109.505L59.7337 107.721L60.7084 105.195L61.3964 103.808L61.8551 102.768L62.1418 101.975C62.1418 101.975 62.08 101.234 62.1991 100.886C62.2742 100.666 62.6004 100.291 62.6004 100.291L62.5431 98.9042C62.5431 98.9042 62.5272 98.1935 62.6578 97.864C62.8775 97.3093 63.7471 96.378 63.7471 96.378L64.7792 94.6443L66.3272 91.3255L67.9899 88.1058L71.774 83.1523L84.7891 83.8458Z" fill="#F30000" stroke="#F30000" stroke-width="0.260562"/>
</g>
</g>
</g>
<defs>
<clipPath id="clip0">
<rect width="82.3512" height="81.3052" fill="white" transform="translate(41.0437 42.0811)"/>
</clipPath>
<clipPath id="clip1">
<rect width="82.0876" height="81.0449" fill="white" transform="translate(41.0437 42.0815)"/>
</clipPath>
<clipPath id="clip2">
<rect width="76.6298" height="80.3228" fill="white" transform="translate(46.1868 42.4678)"/>
</clipPath>
</defs>
</svg>
