<svg width="211" height="53" viewBox="0 0 211 53" fill="none" xmlns="http://www.w3.org/2000/svg">
<rect x="0.588379" y="0.245117" width="209.731" height="52" rx="6.55409" fill="#F30000"/>
<path d="M67.0863 22.7609C66.1742 22.7609 65.3715 22.6729 64.6781 22.4969C63.9901 22.3209 63.35 22.1022 62.758 21.8409V19.0087H63.03C63.6274 19.5154 64.2861 19.9047 65.0062 20.1767C65.7262 20.4488 66.4249 20.5848 67.1023 20.5848C67.273 20.5848 67.497 20.5661 67.7744 20.5288C68.057 20.4914 68.2837 20.4328 68.4544 20.3528C68.6624 20.2621 68.8384 20.1367 68.9825 19.9767C69.1265 19.8114 69.1985 19.5954 69.1985 19.3287C69.1985 19.03 69.0811 18.7873 68.8464 18.6006C68.6118 18.4139 68.3317 18.2779 68.0064 18.1926C67.601 18.0859 67.1663 17.9846 66.7023 17.8886C66.2436 17.7926 65.8142 17.6752 65.4142 17.5365C64.4914 17.2112 63.8301 16.7738 63.43 16.2244C63.03 15.6751 62.83 14.987 62.83 14.1603C62.83 13.0455 63.302 12.1441 64.2461 11.4561C65.1902 10.7627 66.3689 10.416 67.7824 10.416C68.4917 10.416 69.1958 10.488 69.8945 10.632C70.5986 10.776 71.228 10.9707 71.7827 11.2161V13.9363H71.5186C71.0759 13.5576 70.5346 13.2376 69.8945 12.9762C69.2598 12.7149 68.6064 12.5842 67.9344 12.5842C67.673 12.5842 67.4383 12.6028 67.2303 12.6402C67.0223 12.6775 66.8036 12.7495 66.5743 12.8562C66.3876 12.9415 66.2249 13.0695 66.0862 13.2402C65.9529 13.4056 65.8862 13.5923 65.8862 13.8003C65.8862 14.1043 65.9929 14.347 66.2062 14.5283C66.4249 14.7043 66.8436 14.8643 67.4623 15.0084C67.8624 15.099 68.2464 15.187 68.6144 15.2724C68.9878 15.3577 69.3851 15.4751 69.8065 15.6244C70.6332 15.9231 71.2466 16.3258 71.6467 16.8325C72.052 17.3339 72.2547 17.9979 72.2547 18.8246C72.2547 20.0087 71.788 20.9608 70.8546 21.6809C69.9265 22.4009 68.6704 22.7609 67.0863 22.7609ZM82.3777 22.5449H79.0494L76.6173 18.6326L76.1852 19.2167V22.5449H73.385V10.096H76.1852V17.0725L78.8414 13.5602H82.1457L79.0014 17.4325L82.3777 22.5449ZM91.6366 18.0566C91.6366 19.534 91.2313 20.6995 90.4205 21.5528C89.6151 22.4009 88.4737 22.8249 86.9963 22.8249C85.5295 22.8249 84.3881 22.4009 83.572 21.5528C82.7613 20.6995 82.3559 19.534 82.3559 18.0566C82.3559 16.5631 82.7613 15.3951 83.572 14.5523C84.3881 13.7043 85.5295 13.2802 86.9963 13.2802C88.4684 13.2802 89.6098 13.7069 90.4205 14.5603C91.2313 15.4084 91.6366 16.5738 91.6366 18.0566ZM88.7644 18.0726C88.7644 17.5392 88.7191 17.0965 88.6284 16.7445C88.5431 16.3871 88.4231 16.1018 88.2684 15.8884C88.103 15.6644 87.9163 15.5097 87.7083 15.4244C87.5003 15.3337 87.263 15.2884 86.9963 15.2884C86.7456 15.2884 86.5189 15.3284 86.3162 15.4084C86.1135 15.4831 85.9269 15.6297 85.7562 15.8484C85.5962 16.0564 85.4682 16.3418 85.3722 16.7045C85.2761 17.0672 85.2281 17.5232 85.2281 18.0726C85.2281 18.622 85.2735 19.0673 85.3642 19.4087C85.4548 19.7447 85.5722 20.0141 85.7162 20.2167C85.8655 20.4248 86.0522 20.5768 86.2762 20.6728C86.5002 20.7688 86.7483 20.8168 87.0203 20.8168C87.2443 20.8168 87.471 20.7688 87.7003 20.6728C87.935 20.5768 88.1217 20.4328 88.2604 20.2407C88.4257 20.0114 88.5511 19.7367 88.6364 19.4167C88.7217 19.0913 88.7644 18.6433 88.7644 18.0726ZM101.296 22.5449H98.4794V18.0886C98.4794 17.7259 98.4634 17.3659 98.4314 17.0085C98.4047 16.6458 98.3514 16.3791 98.2714 16.2084C98.1754 16.0058 98.0367 15.8618 97.8553 15.7764C97.674 15.6857 97.4313 15.6404 97.1273 15.6404C96.8979 15.6404 96.6659 15.6831 96.4312 15.7684C96.1965 15.8538 95.9459 15.9898 95.6792 16.1764V22.5449H92.879V13.5602H95.6792V14.5523C96.1379 14.163 96.5832 13.8589 97.0153 13.6403C97.4526 13.4216 97.9353 13.3122 98.4634 13.3122C99.3808 13.3122 100.082 13.6029 100.568 14.1843C101.053 14.7603 101.296 15.5977 101.296 16.6965V22.5449ZM106.57 22.7209C105.429 22.7209 104.597 22.4863 104.074 22.0169C103.557 21.5475 103.298 20.7795 103.298 19.7127V15.5124H102.226V13.5602H103.298V10.9921H106.098V13.5602H108.794V15.5124H106.098V18.6966C106.098 19.0113 106.101 19.286 106.106 19.5207C106.112 19.7554 106.154 19.9661 106.234 20.1527C106.309 20.3394 106.44 20.4888 106.626 20.6008C106.818 20.7075 107.096 20.7608 107.458 20.7608C107.608 20.7608 107.802 20.7288 108.042 20.6648C108.288 20.6008 108.458 20.5421 108.554 20.4888H108.794V22.4649C108.49 22.5449 108.168 22.6063 107.826 22.6489C107.485 22.6969 107.066 22.7209 106.57 22.7209ZM114.653 20.2007V18.3286C114.178 18.3766 113.794 18.4193 113.501 18.4566C113.208 18.4886 112.92 18.5553 112.637 18.6566C112.392 18.742 112.2 18.8726 112.061 19.0487C111.928 19.2193 111.861 19.4487 111.861 19.7367C111.861 20.1581 111.973 20.4488 112.197 20.6088C112.426 20.7635 112.762 20.8408 113.205 20.8408C113.45 20.8408 113.701 20.7848 113.957 20.6728C114.213 20.5608 114.445 20.4034 114.653 20.2007ZM114.653 21.5929C114.461 21.7529 114.288 21.8969 114.133 22.0249C113.984 22.1529 113.781 22.2809 113.525 22.4089C113.274 22.5316 113.029 22.6249 112.789 22.6889C112.554 22.7529 112.224 22.7849 111.797 22.7849C111.002 22.7849 110.341 22.5183 109.813 21.9849C109.29 21.4515 109.029 20.7795 109.029 19.9687C109.029 19.302 109.162 18.7633 109.429 18.3526C109.695 17.9419 110.079 17.6166 110.581 17.3765C111.087 17.1312 111.693 16.9605 112.397 16.8645C113.101 16.7685 113.858 16.6938 114.669 16.6405V16.5925C114.669 16.0964 114.485 15.7551 114.117 15.5684C113.754 15.3764 113.208 15.2804 112.477 15.2804C112.146 15.2804 111.76 15.3417 111.317 15.4644C110.874 15.5817 110.442 15.7337 110.021 15.9204H109.781V13.7523C110.058 13.6723 110.506 13.5789 111.125 13.4722C111.744 13.3602 112.368 13.3042 112.997 13.3042C114.544 13.3042 115.669 13.5629 116.373 14.0803C117.083 14.5923 117.437 15.3764 117.437 16.4325V22.5449H114.653V21.5929ZM128.256 22.5449H124.928L122.496 18.6326L122.064 19.2167V22.5449H119.264V10.096H122.064V17.0725L124.72 13.5602H128.024L124.88 17.4325L128.256 22.5449ZM132.331 22.7209C131.189 22.7209 130.357 22.4863 129.835 22.0169C129.317 21.5475 129.059 20.7795 129.059 19.7127V15.5124H127.987V13.5602H129.059V10.9921H131.859V13.5602H134.555V15.5124H131.859V18.6966C131.859 19.0113 131.861 19.286 131.867 19.5207C131.872 19.7554 131.915 19.9661 131.995 20.1527C132.07 20.3394 132.2 20.4888 132.387 20.6008C132.579 20.7075 132.856 20.7608 133.219 20.7608C133.368 20.7608 133.563 20.7288 133.803 20.6648C134.048 20.6008 134.219 20.5421 134.315 20.4888H134.555V22.4649C134.251 22.5449 133.928 22.6063 133.587 22.6489C133.246 22.6969 132.827 22.7209 132.331 22.7209ZM143.806 22.5449H141.006V21.5528C140.52 21.9582 140.075 22.2676 139.67 22.4809C139.264 22.6889 138.782 22.7929 138.222 22.7929C137.331 22.7929 136.635 22.5129 136.133 21.9529C135.637 21.3875 135.389 20.5394 135.389 19.4087V13.5602H138.206V18.0166C138.206 18.4806 138.216 18.8593 138.238 19.1527C138.264 19.446 138.323 19.694 138.414 19.8967C138.499 20.0834 138.63 20.2247 138.806 20.3208C138.987 20.4168 139.238 20.4648 139.558 20.4648C139.755 20.4648 139.987 20.4168 140.254 20.3208C140.526 20.2247 140.776 20.0941 141.006 19.9287V13.5602H143.806V22.5449ZM149.513 22.7049C149.513 23.7183 149.211 24.5077 148.609 25.0731C148.006 25.6438 147.227 25.9292 146.272 25.9292C145.76 25.9292 145.296 25.9052 144.88 25.8572C144.464 25.8145 144.16 25.7692 143.968 25.7212V23.657H144.184C144.366 23.7157 144.566 23.761 144.784 23.793C145.008 23.8304 145.187 23.849 145.32 23.849C145.859 23.849 146.224 23.6837 146.416 23.353C146.614 23.0223 146.712 22.4783 146.712 21.7209V15.5124H145.096V13.5602H149.513V22.7049ZM149.513 12.2802H146.528V10.096H149.513V12.2802ZM70.0676 42.7929C69.4063 42.7929 68.7796 42.7209 68.1875 42.5769C67.6008 42.4329 67.1154 42.2649 66.7314 42.0729V39.7047H66.9634C67.0968 39.8061 67.2488 39.9181 67.4195 40.0407C67.5901 40.1634 67.8275 40.2914 68.1315 40.4248C68.3929 40.5474 68.6862 40.6541 69.0116 40.7448C69.3423 40.8301 69.6996 40.8728 70.0837 40.8728C70.4783 40.8728 70.825 40.8115 71.1237 40.6888C71.4278 40.5661 71.5798 40.3714 71.5798 40.1047C71.5798 39.8967 71.5104 39.7394 71.3717 39.6327C71.2331 39.526 70.9637 39.4247 70.5637 39.3287C70.3503 39.2753 70.081 39.2193 69.7556 39.1607C69.4303 39.0967 69.1422 39.0247 68.8916 38.9447C68.1875 38.726 67.6568 38.4033 67.2994 37.9766C66.9474 37.5445 66.7714 36.9792 66.7714 36.2805C66.7714 35.8804 66.8621 35.5044 67.0434 35.1524C67.2301 34.795 67.5021 34.4777 67.8595 34.2003C68.2168 33.9283 68.6569 33.7123 69.1796 33.5522C69.7076 33.3922 70.3023 33.3122 70.9637 33.3122C71.5931 33.3122 72.1718 33.3762 72.6998 33.5042C73.2279 33.6269 73.6733 33.7763 74.0359 33.9523V36.2244H73.8119C73.7159 36.1498 73.5639 36.0511 73.3559 35.9284C73.1479 35.8004 72.9452 35.6911 72.7479 35.6004C72.5132 35.4937 72.2491 35.4057 71.9558 35.3364C71.6678 35.267 71.3717 35.2324 71.0677 35.2324C70.6624 35.2324 70.3183 35.3017 70.0356 35.4404C69.7583 35.5791 69.6196 35.7631 69.6196 35.9924C69.6196 36.1951 69.689 36.3551 69.8276 36.4725C69.9663 36.5898 70.2677 36.7045 70.7317 36.8165C70.9717 36.8752 71.2464 36.9338 71.5558 36.9925C71.8705 37.0458 72.1718 37.1205 72.4598 37.2165C73.1052 37.4245 73.5932 37.7312 73.9239 38.1366C74.26 38.5366 74.428 39.07 74.428 39.7367C74.428 40.1581 74.3293 40.5608 74.132 40.9448C73.9346 41.3235 73.6546 41.6435 73.2919 41.9049C72.9079 42.1876 72.4545 42.4062 71.9318 42.5609C71.4144 42.7156 70.793 42.7929 70.0676 42.7929ZM78.3185 42.5449H75.5183V33.5602H78.3185V42.5449ZM78.3985 32.2802H75.4383V30.096H78.3985V32.2802ZM84.8172 42.7849C83.1211 42.7849 81.8197 42.3796 80.9129 41.5688C80.0115 40.7528 79.5608 39.598 79.5608 38.1046C79.5608 36.6378 79.9822 35.4671 80.8249 34.5923C81.6677 33.7176 82.8464 33.2802 84.3612 33.2802C85.7373 33.2802 86.772 33.6509 87.4654 34.3923C88.1588 35.1337 88.5055 36.1951 88.5055 37.5766V38.5846H82.3691C82.3957 39.0007 82.4837 39.35 82.6331 39.6327C82.7824 39.9101 82.9798 40.1314 83.2251 40.2968C83.4651 40.4621 83.7452 40.5821 84.0652 40.6568C84.3852 40.7261 84.7346 40.7608 85.1133 40.7608C85.4386 40.7608 85.7586 40.7261 86.0733 40.6568C86.388 40.5821 86.676 40.4861 86.9374 40.3688C87.1667 40.2674 87.3774 40.1581 87.5694 40.0407C87.7668 39.9234 87.9268 39.8194 88.0495 39.7287H88.3455V42.0409C88.2335 42.0836 88.1268 42.1262 88.0255 42.1689C87.9295 42.2062 87.8228 42.2489 87.7054 42.2969C87.6094 42.3929 87.5374 42.4702 87.4894 42.5289C87.4414 42.5823 87.3748 42.6649 87.2894 42.7769C87.2041 42.8889 87.1347 43.0036 87.0814 43.121C87.0334 43.2383 87.0094 43.369 87.0094 43.513C87.0094 43.673 87.0601 43.801 87.1614 43.897C87.2681 43.993 87.4068 44.041 87.5774 44.041C87.6574 44.041 87.7428 44.0304 87.8335 44.009C87.9241 43.9877 88.0015 43.9664 88.0655 43.945H88.1455V45.6092C87.9268 45.6945 87.6734 45.7558 87.3854 45.7932C87.1027 45.8305 86.8787 45.8492 86.7134 45.8492C86.2067 45.8492 85.7986 45.7158 85.4893 45.4491C85.1799 45.1825 85.0252 44.8544 85.0252 44.4651C85.0252 43.8197 85.2653 43.2463 85.7453 42.7449C85.3933 42.7716 85.0839 42.7849 84.8172 42.7849ZM85.7453 36.8965C85.7293 36.3045 85.5906 35.8538 85.3293 35.5444C85.0733 35.235 84.6786 35.0804 84.1452 35.0804C83.6011 35.0804 83.1744 35.243 82.8651 35.5684C82.5611 35.8938 82.3931 36.3365 82.3611 36.8965H85.7453ZM101.423 42.5449H93.5664V40.6968L97.8547 35.6644H93.7584V33.5602H101.335V35.3764L97.0386 40.4008H101.423V42.5449ZM115.604 42.5449H112.788V38.0886C112.788 37.7259 112.772 37.3659 112.74 37.0085C112.714 36.6458 112.66 36.3791 112.58 36.2084C112.484 36.0058 112.346 35.8618 112.164 35.7764C111.983 35.6857 111.74 35.6404 111.436 35.6404C111.207 35.6404 110.975 35.6831 110.74 35.7684C110.505 35.8538 110.255 35.9898 109.988 36.1764V42.5449H107.188V33.5602H109.988V34.5523C110.447 34.163 110.892 33.8589 111.324 33.6403C111.762 33.4216 112.244 33.3122 112.772 33.3122C113.69 33.3122 114.391 33.6029 114.876 34.1843C115.362 34.7603 115.604 35.5977 115.604 36.6965V42.5449ZM122.391 40.2007V38.3286C121.917 38.3766 121.533 38.4193 121.239 38.4566C120.946 38.4886 120.658 38.5553 120.375 38.6566C120.13 38.742 119.938 38.8726 119.799 39.0487C119.666 39.2193 119.599 39.4487 119.599 39.7367C119.599 40.1581 119.711 40.4488 119.935 40.6088C120.164 40.7635 120.5 40.8408 120.943 40.8408C121.188 40.8408 121.439 40.7848 121.695 40.6728C121.951 40.5608 122.183 40.4034 122.391 40.2007ZM122.391 41.5929C122.199 41.7529 122.026 41.8969 121.871 42.0249C121.722 42.1529 121.519 42.2809 121.263 42.4089C121.012 42.5316 120.767 42.6249 120.527 42.6889C120.292 42.7529 119.962 42.7849 119.535 42.7849C118.74 42.7849 118.079 42.5183 117.551 41.9849C117.028 41.4515 116.767 40.7795 116.767 39.9687C116.767 39.302 116.9 38.7633 117.167 38.3526C117.434 37.9419 117.818 37.6166 118.319 37.3765C118.826 37.1312 119.431 36.9605 120.135 36.8645C120.839 36.7685 121.597 36.6938 122.407 36.6405V36.5925C122.407 36.0964 122.223 35.7551 121.855 35.5684C121.493 35.3764 120.946 35.2804 120.215 35.2804C119.884 35.2804 119.498 35.3417 119.055 35.4644C118.612 35.5817 118.18 35.7337 117.759 35.9204H117.519V33.7523C117.796 33.6723 118.244 33.5789 118.863 33.4722C119.482 33.3602 120.106 33.3042 120.735 33.3042C122.282 33.3042 123.407 33.5629 124.111 34.0803C124.821 34.5923 125.175 35.3764 125.175 36.4325V42.5449H122.391V41.5929ZM137.739 42.5449V38.0566C137.739 37.6139 137.731 37.2405 137.715 36.9365C137.699 36.6325 137.651 36.3845 137.571 36.1924C137.491 36.0004 137.365 35.8618 137.195 35.7764C137.029 35.6857 136.795 35.6404 136.491 35.6404C136.277 35.6404 136.067 35.6884 135.858 35.7844C135.65 35.8751 135.424 36.0058 135.178 36.1764V42.5449H132.362V38.0566C132.362 37.6192 132.352 37.2485 132.33 36.9445C132.314 36.6351 132.266 36.3845 132.186 36.1924C132.106 36.0004 131.981 35.8618 131.81 35.7764C131.645 35.6857 131.413 35.6404 131.114 35.6404C130.885 35.6404 130.661 35.6937 130.442 35.8004C130.223 35.9071 130.01 36.0324 129.802 36.1764V42.5449H127.002V33.5602H129.802V34.5523C130.261 34.163 130.693 33.8589 131.098 33.6403C131.503 33.4216 131.96 33.3122 132.466 33.3122C133.016 33.3122 133.498 33.4429 133.914 33.7043C134.33 33.9656 134.648 34.355 134.866 34.8723C135.405 34.371 135.912 33.9869 136.387 33.7203C136.867 33.4482 137.352 33.3122 137.843 33.3122C138.259 33.3122 138.632 33.3789 138.963 33.5122C139.293 33.6456 139.573 33.8456 139.803 34.1123C140.053 34.4003 140.24 34.7443 140.363 35.1444C140.491 35.5391 140.555 36.0564 140.555 36.6965V42.5449H137.739ZM145.189 42.5449H142.389V33.5602H145.189V42.5449ZM145.269 32.2802H142.309V30.096H145.269V32.2802Z" fill="white"/>
</svg>
