<svg width="121" height="35" viewBox="0 0 121 35" fill="none" xmlns="http://www.w3.org/2000/svg">
<g clip-path="url(#clip0)">
<path d="M47.7316 9.59204V25.1762H43.2602V14.6552L41.4741 25.1762H38.3029L36.4196 14.8959V25.1762H31.9482V9.59204H38.5702C38.7646 10.5289 38.9711 11.6327 39.1899 12.9033L39.8946 16.8691L41.061 9.59204H47.7316Z" fill="#F30000"/>
<path d="M54.6937 9.59204V11.6231H49.6392V9.59204H54.6937ZM54.6937 12.4028V25.1762H49.6392V12.4028H54.6937Z" fill="#F30000"/>
<path d="M75.8474 9.59204L73.5753 25.1762H67.1842C66.6009 22.7826 66.0866 20.0617 65.6411 17.0135C65.4386 18.3162 64.9647 21.0371 64.2195 25.1762H57.8648L55.5806 9.59204H60.5501L61.0725 15.0306L61.6071 20.2767C61.7934 17.5622 62.2633 14.0007 63.0166 9.59204H68.3384C68.4113 10.0477 68.5976 11.7611 68.8974 14.7322L69.4563 20.6521C69.7398 16.8852 70.2136 13.1985 70.8779 9.59204H75.8474Z" fill="black"/>
<path d="M81.1084 17.3508H76.5034V16.4941C76.5034 15.5058 76.6452 14.7454 76.9287 14.2128C77.2203 13.6737 77.7995 13.1989 78.6662 12.7882C79.5329 12.3775 80.6588 12.1721 82.044 12.1721C83.7045 12.1721 84.956 12.4063 85.7985 12.8748C86.6409 13.3368 87.1472 13.908 87.3173 14.5882C87.4874 15.262 87.5724 16.6545 87.5724 18.7658V25.1766H82.7973V24.0407C82.4976 24.4963 82.1088 24.8397 81.6309 25.0707C81.1611 25.2953 80.5981 25.4076 79.942 25.4076C79.0834 25.4076 78.2936 25.2183 77.5727 24.8397C76.8598 24.4546 76.5034 23.6172 76.5034 22.3273V21.2781C76.5034 20.3219 76.6938 19.6706 77.0745 19.3241C77.4552 18.9776 78.3989 18.5733 79.9055 18.1112C81.5175 17.6107 82.3802 17.2738 82.4936 17.1005C82.607 16.9273 82.6636 16.5743 82.6636 16.0417C82.6636 15.3743 82.5989 14.9411 82.4693 14.7422C82.3478 14.5369 82.1412 14.4342 81.8496 14.4342C81.5175 14.4342 81.3109 14.5208 81.2299 14.6941C81.1489 14.8609 81.1084 15.3005 81.1084 16.0128V17.3508ZM82.6637 19.1027C81.8779 19.5583 81.4203 19.9401 81.2907 20.2482C81.1692 20.5562 81.1084 20.999 81.1084 21.5765C81.1084 22.2375 81.1611 22.6642 81.2664 22.8567C81.3798 23.0493 81.5985 23.1455 81.9225 23.1455C82.2303 23.1455 82.4288 23.0717 82.5179 22.9241C82.6151 22.7701 82.6637 22.3723 82.6637 21.7305V19.1027Z" fill="black"/>
<path d="M94.4373 10.6998V12.7115H95.7617V14.7329H94.4373V21.5673C94.4373 22.4079 94.4899 22.8764 94.5952 22.9726C94.7086 23.0688 95.1663 23.117 95.9682 23.117V25.1769H93.9877C92.8698 25.1769 92.072 25.1416 91.594 25.071C91.1161 24.994 90.6949 24.8239 90.3304 24.5608C89.9659 24.2913 89.7391 23.9865 89.65 23.6464C89.5609 23.2998 89.5163 22.4913 89.5163 21.2207V14.7329H88.4592V12.7115H89.5163V10.6997L94.4373 10.6998Z" fill="black"/>
<path d="M107.693 17.2257H103.064V15.7529C103.064 15.2396 103.012 14.893 102.906 14.7133C102.801 14.5272 102.607 14.4342 102.323 14.4342C102.04 14.4342 101.849 14.5144 101.752 14.6748C101.655 14.8352 101.606 15.1946 101.606 15.7529V21.7787C101.606 22.2343 101.679 22.5776 101.825 22.8086C101.971 23.0332 102.185 23.1455 102.469 23.1455C102.801 23.1455 103.024 23.0268 103.137 22.7894C103.259 22.5519 103.319 22.1027 103.319 21.4418V19.9209H107.693C107.685 20.9412 107.636 21.7081 107.548 22.2215C107.466 22.7284 107.195 23.2514 106.733 23.7904C106.28 24.3231 105.684 24.7273 104.947 25.0033C104.21 25.2728 103.299 25.4076 102.214 25.4076C100.828 25.4076 99.7308 25.2215 98.9208 24.8493C98.1108 24.4707 97.5356 23.9444 97.1954 23.2706C96.8633 22.5904 96.6973 21.6279 96.6973 20.3829V16.754C96.6973 15.6695 96.835 14.8513 97.1104 14.2994C97.3858 13.7476 97.9731 13.2566 98.8722 12.8267C99.7713 12.3903 100.865 12.1721 102.153 12.1721C103.433 12.1721 104.526 12.3871 105.433 12.8171C106.341 13.247 106.944 13.7892 107.244 14.4438C107.543 15.0983 107.693 16.0256 107.693 17.2257H107.693Z" fill="black"/>
<path d="M114.06 9.59204V13.0958C114.482 12.7878 114.935 12.5568 115.421 12.4028C115.915 12.2488 116.442 12.1718 117.001 12.1718C117.859 12.1718 118.589 12.345 119.188 12.6916C119.795 13.0381 120.164 13.4391 120.294 13.8948C120.431 14.344 120.5 15.1686 120.5 16.3686V25.1762H115.591V16.1857C115.591 15.4413 115.543 14.9632 115.445 14.7515C115.356 14.5397 115.15 14.4338 114.826 14.4338C114.526 14.4338 114.324 14.5429 114.218 14.7611C114.113 14.9793 114.06 15.4125 114.06 16.0606V25.1762H109.152V9.59204H114.06Z" fill="black"/>
</g>
<g clip-path="url(#clip1)">
<path d="M5.60767 34.3546C5.22305 34.2411 4.84159 33.9353 4.6415 33.5802L4.47421 33.2832L4.45238 29.0437L4.43055 24.8041L4.40523 24.5052C4.35224 23.8795 2.98978 23.22 2.38673 22.3767C2.00567 21.8438 1.58796 20.7856 1.37932 20.1367C0.746394 18.1682 0.706082 16.025 1.52485 14.1487C2.11244 12.8021 3.39123 12.0012 4.07743 10.7402L4.39978 10.1478L4.437 5.93487C4.47396 1.75033 4.47533 1.71993 4.63952 1.42866C4.84249 1.0686 5.24468 0.74475 5.62209 0.637482C5.98506 0.534319 14.029 0.523681 14.4046 0.625869C14.8333 0.742507 15.2115 1.04265 15.4129 1.42602L15.6015 1.78494V5.95768V10.1304L15.7732 10.6292C15.9939 11.2703 17.2554 11.9471 17.6807 12.559C18.3502 13.5223 18.8191 14.8978 19.0254 15.9337C19.109 16.3532 19.4962 16.1456 19.7809 16.2265C20.2505 16.36 20.3644 16.6091 20.3644 17.5026C20.3644 18.3943 20.2502 18.6452 19.7839 18.7777C19.4941 18.8601 18.8072 18.7009 18.6782 19.2742C18.406 20.4845 18.1134 21.7462 17.2925 22.784C16.9034 23.276 15.4317 23.9247 15.5285 24.4652L15.6015 24.8723L15.5998 29.0424C15.5981 33.6981 15.618 33.5106 15.0706 34.004C14.5744 34.4512 14.602 34.4488 10.0284 34.4428C7.08483 34.439 5.8072 34.4135 5.60761 34.3546H5.60767ZM14.3023 33.2158L14.485 33.0425V29.2972C14.485 27.2372 14.4672 25.5518 14.4453 25.5518C14.4235 25.5518 14.0583 25.4318 13.8478 25.4792C12.7456 25.7271 12.3539 26.0012 11.5711 26.1301C11.0557 26.2149 10.6065 26.1003 9.74031 26.0731C8.27967 26.0272 7.30779 25.8686 6.17369 25.3774C5.67337 25.1606 5.58918 25.5603 5.60042 25.7636C5.60578 25.8607 5.61416 27.5514 5.61903 29.5207L5.62788 33.1012L5.79077 33.2452C5.9506 33.3864 6.03054 33.3891 10.0367 33.3891H14.1196L14.3023 33.2158ZM12.3648 25.8675C16.4597 24.8922 19.2022 20.7302 18.8166 16.7973C18.5163 13.7335 16.2513 10.8183 13.2525 9.76942C12.1137 9.37108 11.4202 9.20213 9.95383 9.20829C8.75052 9.21334 8.38792 9.23306 7.71942 9.40177C6.86971 9.61624 5.39431 10.2543 4.72192 10.7313C3.56932 11.5491 2.45516 13.1891 1.9466 14.348C1.01234 16.4769 1.0378 19.0225 2.06403 21.0429C2.46834 21.8389 2.78301 22.5523 3.44274 23.2192C4.70939 24.4996 6.59792 25.4993 8.43628 25.8365C9.19982 25.9765 11.5825 26.0538 12.3648 25.8675ZM7.65789 9.20272C8.56484 8.95471 8.90515 8.79778 10.0471 8.79624C11.466 8.79438 12.3142 9.2151 13.6854 9.52823L14.4662 9.70657L14.485 5.70532V1.96261L14.3023 1.7893L14.1196 1.61599H10.1006C6.0371 1.61599 5.76907 1.63154 5.67144 1.87288C5.6438 1.94122 5.61058 9.1101 5.63493 9.57987C5.63623 9.60471 6.11301 9.75087 6.43026 9.62133C6.74752 9.4918 7.28961 9.30342 7.65789 9.20272Z" fill="#F30000"/>
<path d="M2.06485 22.5018C1.68378 21.9689 1.11571 20.8305 0.907062 20.1816C0.27414 18.2131 0.384201 15.9362 1.20297 14.0599C1.79056 12.7133 2.65727 11.4365 3.83073 10.5564C9.78271 6.26207 15.6335 8.89995 18.1918 12.6719C18.1918 12.6719 18.9933 13.7674 19.1996 14.8033C19.2832 15.2228 19.4939 16.1459 19.7786 16.2269C20.2482 16.3603 20.3621 16.6094 20.3621 17.5029C20.3621 18.3946 20.2478 18.6456 19.7816 18.7781C19.4917 18.8605 19.4909 18.8617 19.3619 19.435C19.0897 20.6453 18.4588 21.9427 17.6379 22.9805C13.5992 28.4087 5.54686 27.3902 2.06485 22.5018ZM14.443 25.5521C2.7946 6.62268 8.6188 16.0874 14.443 25.5521V25.5521ZM11.9959 25.2794C16.0908 24.3041 18.8051 20.7127 18.4195 16.7798C18.1192 13.716 15.9952 11.0683 12.9964 10.0194C11.8576 9.62103 11.446 9.55907 9.97968 9.56523C8.77637 9.57027 8.56415 9.58999 7.89564 9.75871C7.04593 9.97317 5.73971 10.5666 5.06731 11.0437C3.91472 11.8614 2.79115 13.1983 2.28259 14.3572C1.34833 16.4862 1.40198 18.9069 2.42822 20.9273C2.83252 21.7233 3.24117 22.2852 3.90091 22.9521C5.16756 24.2325 6.72715 25.0449 8.56551 25.3821C9.32905 25.5221 11.2136 25.4657 11.9959 25.2794ZM9.64698 18.2598C9.40939 18.1458 9.12374 17.7423 9.12374 17.5208C9.12374 17.3175 9.33466 16.8674 9.42994 16.8674C9.46689 16.8674 9.49588 15.8609 9.49588 14.5778V12.2882L9.692 12.1419C9.93647 11.9595 10.1717 11.9557 10.3994 12.1304L10.5751 12.2653L10.6123 14.584L10.6495 16.9027L12.298 16.938C13.7839 16.9699 13.9619 16.9866 14.1029 17.1078C14.3156 17.2907 14.3156 17.7151 14.1029 17.8979C13.9611 18.0198 13.7957 18.0346 12.3468 18.0552C10.9249 18.0754 10.721 18.093 10.5123 18.2138C10.2427 18.3697 9.91251 18.3873 9.64698 18.2598V18.2598Z" fill="black"/>
</g>
<defs>
<clipPath id="clip0">
<rect width="88.5518" height="15.8152" fill="white" transform="translate(31.9482 9.59204)"/>
</clipPath>
<clipPath id="clip1">
<rect width="19.8621" height="33.8896" fill="white" transform="translate(0.5 0.555176)"/>
</clipPath>
</defs>
</svg>
