<svg width="84" height="81" viewBox="0 0 84 81" fill="none" xmlns="http://www.w3.org/2000/svg">
<ellipse cx="41.685" cy="40.2591" rx="41.685" ry="40.2591" fill="#E0DFDF"/>
<g clip-path="url(#clip0)">
<g clip-path="url(#clip1)">
<path d="M41.4308 39.7993C44.4519 39.7993 46.9098 37.4255 46.9098 34.5078C46.9098 31.5901 44.4519 29.2163 41.4308 29.2163C38.4097 29.2163 35.9519 31.5901 35.9519 34.5078C35.9519 37.4255 38.4097 39.7993 41.4308 39.7993ZM41.4308 30.8987C43.4913 30.8987 45.1677 32.5177 45.1677 34.5077C45.1677 36.4977 43.4913 38.1167 41.4308 38.1167C39.3704 38.1167 37.694 36.4977 37.694 34.5077C37.694 32.5177 39.3704 30.8987 41.4308 30.8987Z" fill="#F30000"/>
<path d="M61.8907 56.3118L57.6548 40.3279C57.5068 39.7695 56.9858 39.379 56.3889 39.379H51.8328C52.5769 37.8893 52.9702 36.2452 52.9702 34.5424C52.9702 31.5656 51.7699 28.7669 49.5905 26.662C47.4109 24.557 44.5131 23.3977 41.4308 23.3977C38.3485 23.3977 35.4507 24.557 33.2712 26.662C31.0916 28.7669 29.8913 31.5656 29.8913 34.5424C29.8913 36.2452 30.2847 37.8894 31.0287 39.379H26.1861C25.5893 39.379 25.0683 39.7696 24.9203 40.3279L20.6844 56.3118C20.5843 56.6894 20.6705 57.0906 20.9181 57.3985C21.1655 57.7064 21.5465 57.8866 21.9502 57.8866H60.625C61.0286 57.8866 61.4095 57.7064 61.6571 57.3985C61.9045 57.0906 61.9908 56.6894 61.8907 56.3118ZM33.637 42.7761L40.507 49.411C40.524 49.4274 40.5422 49.4418 40.5598 49.4571V55.3628H31.821L33.637 42.7761ZM42.3019 49.4572C42.3196 49.4418 42.3378 49.4274 42.3547 49.4111L48.9731 43.0191L50.7541 55.3629H42.3019V49.4572ZM35.119 28.4465C36.805 26.8183 39.0465 25.9215 41.4308 25.9215C43.815 25.9215 46.0566 26.8182 47.7426 28.4465C49.4285 30.0748 50.3571 32.2397 50.3571 34.5424C50.3571 36.8451 49.4285 39.01 47.7426 40.6383L41.4308 46.7343L35.119 40.6383C33.433 39.0101 32.5045 36.8451 32.5045 34.5424C32.5046 32.2396 33.433 30.0748 35.119 28.4465ZM27.2004 41.9027H32.0042L30.062 55.3629H23.6332L27.2004 41.9027ZM52.513 55.3629L50.5709 41.9027H55.3746L58.9417 55.3629H52.513Z" fill="#F30000"/>
</g>
</g>
<defs>
<clipPath id="clip0">
<rect width="41.4206" height="40.0037" fill="white" transform="translate(20.6436 20.7043)"/>
</clipPath>
<clipPath id="clip1">
<rect width="41.288" height="39.8757" fill="white" transform="translate(20.6436 20.7043)"/>
</clipPath>
</defs>
</svg>
