<svg width="166" height="164" viewBox="0 0 166 164" fill="none" xmlns="http://www.w3.org/2000/svg">
<ellipse cx="82.8769" cy="81.8242" rx="82.8769" ry="81.8242" fill="#E0DFDF"/>
<g clip-path="url(#clip0)">
<g clip-path="url(#clip1)">
<g clip-path="url(#clip2)">
<path fill-rule="evenodd" clip-rule="evenodd" d="M60.4385 115.373L60.3222 113.059L42.8721 113.782V115.807L60.4385 115.373Z" fill="#F30000" stroke="#F30000" stroke-width="0.127724"/>
<path fill-rule="evenodd" clip-rule="evenodd" d="M54.5055 113.494L52.1789 109.3L51.3645 108.577L49.9685 110.602L49.2705 115.519H55.5525L54.5055 113.494Z" fill="#F30000" stroke="#F30000" stroke-width="0.127724"/>
<path fill-rule="evenodd" clip-rule="evenodd" d="M53.8074 112.048L54.5054 108.143V105.54L54.2727 103.804L54.6217 102.358L55.087 101.924L56.4831 101.345L58.1117 101.201L59.9731 106.407L59.0424 107.275L58.5771 108.721L57.0647 112.626V114.796C56.5949 115.632 55.8702 115.042 55.1917 114.711L53.8074 112.048Z" fill="#F30000" stroke="#F30000" stroke-width="0.127724"/>
<path fill-rule="evenodd" clip-rule="evenodd" d="M57.9956 101.347C57.9956 101.347 59.4605 100.382 60.4386 99.0476C61.0068 98.2726 62.0673 96.8631 62.0673 96.8631L62.998 95.5615L64.3047 93.9107L65.092 92.3797L65.5573 91.9458L67.186 90.9334L68.8147 89.7764L71.2577 88.4747L73.0027 86.7392L75.0967 83.4128L76.0274 82.1111L77.7724 80.3756L80.7971 78.2062L81.4951 75.0244L82.1931 73.4335L83.2401 71.8426L84.5198 70.6855L85.5668 70.2517L87.8934 69.9624L88.2424 84.4252H86.7301L85.3341 85.4375L83.1237 87.3177L80.3317 89.6317C80.3317 89.6317 78.9465 90.8474 78.1825 91.2913C77.7543 91.5401 76.8359 91.8435 76.8359 91.8435L75.9181 92.2015L75.213 93.1028C75.213 93.1028 74.1887 94.0603 73.5844 94.2598C73.3595 94.3341 72.8864 94.2598 72.8864 94.2598L71.374 95.2722L69.8617 96.8631L68.1167 98.454L65.3246 100.19L63.347 102.07L61.4856 103.516L60.6713 104.673L59.1589 106.264L57.9956 101.347Z" fill="#F30000" stroke="#F30000" stroke-width="0.127724"/>
<path fill-rule="evenodd" clip-rule="evenodd" d="M87.0791 70.105L90.1037 71.8405L94.0591 77.481L96.6184 81.0967C96.6184 81.0967 98.0521 82.303 98.5961 83.1215C99.2152 84.0527 99.9921 86.3033 99.9921 86.3033L100.457 87.171L101.395 89.919L102.202 91.6545L102.319 93.5346L101.853 95.2702L100.574 96.4272L99.2941 96.7164L98.1308 97.1503L96.3858 97.7288L94.4904 98.2226L92.3764 98.6054L90.159 98.6565L88.1261 98.7412L85.5667 99.609L85.1014 100.043L84.8687 101.2L84.5197 103.225V105.394C84.5197 105.394 85.308 106.841 85.3058 107.666C85.3049 107.997 84.985 108.576 84.985 108.576L84.636 109.299H84.0544L82.193 107.13L81.2482 103.948C81.2482 103.948 80.8623 102.237 80.475 101.507C80.1678 100.927 79.2847 100.043 79.2847 100.043L78.9357 98.8859L78.5867 97.4396L79.2847 96.8611L81.146 95.7041L81.9604 95.1255V95.9933L83.8217 95.5594L87.3117 94.2578C87.3117 94.2578 88.9055 93.599 89.6384 93.1008C89.9311 92.9018 90.1647 92.5867 90.4527 92.3776C91.0071 91.9753 91.5847 91.6017 92.1978 91.3652C92.8736 91.1045 94.2918 90.9313 94.2918 90.9313L91.3834 89.0512L88.5914 86.7371L85.7994 82.2537L87.0791 70.105Z" fill="#F30000" stroke="#F30000" stroke-width="0.127724"/>
<path fill-rule="evenodd" clip-rule="evenodd" d="M92.1977 77.6249L94.6407 76.6125L96.502 75.4555L98.945 74.4431L99.9921 74.1539L101.853 72.8522L103.564 72.4782L105.816 71.4571L107.437 70.0707L109.299 68.2241L108.95 60.125L100.69 57.9556L99.6431 59.6911L98.0144 60.5589L96.7347 61.7159L94.757 63.596L92.663 65.6208L89.7547 68.2241L86.9626 70.5382L92.1977 77.6249Z" fill="#F30000" stroke="#F30000" stroke-width="0.127724"/>
<path fill-rule="evenodd" clip-rule="evenodd" d="M107.554 68.3709L107.689 70.0435L109.182 73.2882L110.229 75.1684L111.276 77.9163L113.021 79.6518C113.021 79.6518 113.89 80.2878 114.301 80.0857C114.852 79.8152 115.232 78.2055 115.232 78.2055L116.395 75.8915L117.558 73.1436L118.489 70.8295L118.838 69.094L119.536 68.0816C119.536 68.0816 120.678 67.5158 121.134 66.9246C121.381 66.6056 121.745 65.7296 121.745 65.7296L122.561 64.032C122.52 63.6552 122.307 63.6504 122.044 63.757L123.026 62.5858L123.142 61.8626C122.947 61.2377 122.57 62.1887 122.275 62.4269L121.453 62.9912L122.212 61.718L122.91 60.2717C122.941 59.8632 122.76 59.9169 122.572 59.9849L121.01 62.1708L121.63 59.404C121.596 58.9299 121.414 58.9361 121.1 59.366C120.89 59.9928 120.621 61.1221 120.469 61.2462L120.213 61.5188L119.525 62.268C119.525 62.268 118.807 62.656 118.596 63.0363C118.262 63.6373 118.345 64.6525 118.201 65.1724C118.012 65.8564 117.907 66.9246 117.907 66.9246L117.442 67.2138L115.93 70.251L114.999 71.6973L114.301 72.5651L114.068 73.2882L113.603 72.9989C113.603 72.9989 113.465 71.1859 113.138 70.3957C112.899 69.8191 112.091 68.9494 112.091 68.9494L111.974 67.2138L111.625 65.4783L107.554 68.3709Z" fill="#F30000" stroke="#F30000" stroke-width="0.127724"/>
<path fill-rule="evenodd" clip-rule="evenodd" d="M108.836 67.2923C108.836 67.2923 111.341 67.0369 112.207 66.0564C112.361 65.8816 112.44 65.3332 112.44 65.3332C112.44 65.3332 112.958 65.6674 113.138 65.4778C113.227 65.3844 113.138 65.044 113.138 65.044C113.138 65.044 113.386 65.1152 113.487 65.044C113.684 64.9055 113.836 64.3208 113.836 64.3208C113.836 64.3208 114.082 64.88 114.301 64.8993C114.494 64.9164 114.663 64.6694 114.766 64.4654C114.977 64.0495 114.999 63.0192 114.999 63.0192L115.348 62.1514C115.348 62.1514 115.956 61.8643 116.162 61.5729C116.496 61.1031 116.744 59.8374 116.744 59.8374L117.093 59.6927L117.675 60.1266L117.907 58.825C117.907 58.825 117.835 57.5468 117.675 56.9448C117.44 56.0645 117.136 55.1649 116.628 54.4861C116.129 53.8203 115.399 53.4968 114.766 53.0399C114.271 52.6823 113.791 52.2758 113.254 52.0275C112.919 51.8724 112.565 51.7289 112.207 51.7382C111.605 51.7539 110.976 51.9276 110.462 52.3167C109.97 52.6894 109.706 53.4009 109.299 53.9076C108.891 54.4144 108.354 54.7702 108.019 55.3539C107.676 55.952 107.321 57.3787 107.321 57.3787L107.088 59.1142L108.836 67.2923Z" fill="#F30000" stroke="#F30000" stroke-width="0.127724"/>
<path fill-rule="evenodd" clip-rule="evenodd" d="M108.491 61.3449L107.088 57.0899L106.158 55.9328L105.343 55.3543L104.645 53.908C104.645 53.908 104.298 53.1007 104.064 52.751C103.66 52.1476 102.668 51.1601 102.668 51.1601L100.574 49.1353L99.294 47.5444H98.247L96.502 47.8337L94.5243 48.1229L93.4773 48.4122L91.8486 48.9907L89.6383 50.2924L88.7076 50.8709L87.8933 51.0155C87.8933 51.0155 87.7343 50.5008 87.5442 50.5485L85.6829 51.0155L84.5196 50.5816L83.3562 49.8585H82.8909L82.7746 50.5816L84.7522 51.8833L84.8686 52.1725L82.3092 51.4494C82.3092 51.4494 81.6197 51.5554 81.5489 51.892C81.4893 52.1753 81.9602 52.6064 81.9602 52.6064L84.5196 53.4742V53.6188L81.7276 55.3543L81.6112 55.9328L82.0766 56.2221L84.5196 55.2097L84.1706 55.3543L83.1236 56.5113L82.3362 57.4814C82.3362 57.4814 82.3863 57.9783 82.5419 58.0687C82.7617 58.1962 83.2399 57.813 83.2399 57.813L84.2869 57.0899L85.5666 55.7882H86.6136L86.1482 56.656L85.6829 57.5237V58.2469C85.6829 58.2469 85.8616 59.209 86.1753 59.252C86.4402 59.2883 86.7299 58.5361 86.7299 58.5361L86.8462 57.6684L88.1259 56.0775L88.5913 54.3419L90.8909 53.5253L92.8956 53.1177L94.5243 53.0403L96.851 52.8621L98.4115 52.735L98.8286 54.1973L100.806 57.813L103.366 61.8626L108.491 61.3449Z" fill="#F30000" stroke="#F30000" stroke-width="0.127724"/>
</g>
</g>
</g>
<defs>
<clipPath id="clip0">
<rect width="82.3512" height="81.3052" fill="white" transform="translate(41.0439 42.0811)"/>
</clipPath>
<clipPath id="clip1">
<rect width="82.0876" height="81.0449" fill="white" transform="translate(41.0439 42.0801)"/>
</clipPath>
<clipPath id="clip2">
<rect width="80.3228" height="68.3205" fill="white" transform="translate(42.8494 47.5161)"/>
</clipPath>
</defs>
</svg>
