<svg width="105" height="105" viewBox="0 0 105 105" fill="none" xmlns="http://www.w3.org/2000/svg">
<path d="M29.5723 24.9785C29.1621 25.3272 21.3076 32.4229 27.6035 46.3682C28.5469 48.4805 27.624 50.9414 25.5117 51.9053C23.8916 52.6436 21.1846 52.5 19.9746 49.8135C11.0127 29.7568 23.666 18.9902 24.2197 18.5391C26.0039 17.0625 28.6289 17.3291 30.1055 19.1133C31.582 20.8975 31.3359 23.5225 29.5723 24.9785ZM93.9668 7.38282C83.5283 -1.41504 66.876 1.43555 52.5 14.1709C38.124 1.43555 21.4717 -1.41504 11.0332 7.38282C-2.00976 18.3955 -0.328124 43.2305 14.8682 63.9434C24.9375 77.6631 48.5215 100.632 49.5879 101.534C52.2129 103.729 54.5918 102.313 55.3916 101.534C56.3965 100.57 80.042 77.6631 90.1113 63.9434C105.328 43.2305 107.01 18.3955 93.9668 7.38282Z" fill="#F30000"/>
</svg>
