<svg width="105" height="105" viewBox="0 0 105 105" fill="none" xmlns="http://www.w3.org/2000/svg">
<path d="M40.2106 45.1575C31.9875 45.1575 25.2977 51.8569 25.2977 60.0909C25.2977 65.5815 29.6253 70.0398 30.1181 70.5298C30.9301 71.3368 32.0003 73.1237 32.3475 74.2451L33.5385 79.1284C33.8292 80.322 34.8987 81.1623 36.1275 81.1623H44.2926C45.521 81.1623 46.5905 80.3227 46.8815 79.1291L48.0737 74.2441C48.4194 73.1258 49.4893 71.3382 50.3023 70.5298C50.7955 70.0398 55.122 65.5811 55.122 60.0909C55.1227 51.8565 48.4333 45.1575 40.2106 45.1575ZM46.5447 66.7505C45.0757 68.2113 43.5283 70.8091 42.9448 72.7925C42.9331 72.8323 42.9224 72.8725 42.9125 72.9127L42.1997 75.8327H38.2211L37.509 72.9134C37.4994 72.8721 37.488 72.8313 37.4759 72.7904C36.89 70.8048 35.3425 68.2081 33.8814 66.7558C32.9764 65.8444 30.6277 62.8707 30.6277 60.0913C30.6277 54.7958 34.9264 50.4878 40.2106 50.4878C45.494 50.4878 49.7927 54.7958 49.7927 60.0913C49.7927 62.8703 47.444 65.8444 46.5447 66.7505Z" fill="#F30000"/>
<path d="M75.3879 0H5.03254C3.56041 0 2.36757 1.19284 2.36757 2.66497V102.335C2.36757 103.807 3.56041 105 5.03254 105H75.3879C76.86 105 78.0528 103.807 78.0528 102.335V2.66497C78.0528 1.19284 76.86 0 75.3879 0ZM72.7229 99.6701H7.69752V5.32995H72.7229V99.6701Z" fill="#F30000"/>
<path d="M16.7584 31.1802H63.662C65.1341 31.1802 66.327 29.9874 66.327 28.5152V14.3909C66.327 12.9187 65.1341 11.7259 63.662 11.7259H16.7584C15.2863 11.7259 14.0935 12.9187 14.0935 14.3909V28.5152C14.0935 29.9874 15.2867 31.1802 16.7584 31.1802ZM19.4234 17.0558H60.997V25.8503H19.4234V17.0558Z" fill="#F30000"/>
<path d="M43.1417 83.5914H37.2787C35.8066 83.5914 34.6138 84.7842 34.6138 86.2563C34.6138 87.7285 35.8066 88.9213 37.2787 88.9213H43.1417C44.6138 88.9213 45.8067 87.7285 45.8067 86.2563C45.8067 84.7842 44.6138 83.5914 43.1417 83.5914Z" fill="#F30000"/>
<path d="M40.304 90.5203H40.1168C38.6446 90.5203 37.4518 91.7132 37.4518 93.1853C37.4518 94.6574 38.6446 95.8503 40.1168 95.8503H40.304C41.7761 95.8503 42.969 94.6574 42.969 93.1853C42.969 91.7132 41.7758 90.5203 40.304 90.5203Z" fill="#F30000"/>
<path d="M40.304 42.0177C41.7761 42.0177 42.969 40.8249 42.969 39.3528C42.969 37.8806 41.7761 36.6878 40.304 36.6878H40.1168C38.6446 36.6878 37.4518 37.8806 37.4518 39.3528C37.4518 40.8249 38.6446 42.0177 40.1168 42.0177H40.304Z" fill="#F30000"/>
<path d="M26.9791 43.9721C26.9791 42.5 25.7863 41.3071 24.3142 41.3071H24.1269C22.6548 41.3071 21.4619 42.5 21.4619 43.9721C21.4619 45.4442 22.6551 46.6371 24.1269 46.6371H24.3142C25.7859 46.6371 26.9791 45.4442 26.9791 43.9721Z" fill="#F30000"/>
<path d="M56.2939 41.3071H56.1066C54.6345 41.3071 53.4416 42.5 53.4416 43.9721C53.4416 45.4442 54.6345 46.6371 56.1066 46.6371H56.2939C57.766 46.6371 58.9588 45.4442 58.9588 43.9721C58.9588 42.5 57.7656 41.3071 56.2939 41.3071Z" fill="#F30000"/>
<path d="M62.3345 54.2767H62.1472C60.6751 54.2767 59.4822 55.4695 59.4822 56.9416C59.4822 58.4138 60.6751 59.6066 62.1472 59.6066H62.3345C63.8066 59.6066 64.9994 58.4138 64.9994 56.9416C64.9994 55.4695 63.8062 54.2767 62.3345 54.2767Z" fill="#F30000"/>
<path d="M19.3396 54.2767H19.1523C17.6805 54.2767 16.4873 55.4695 16.4873 56.9416C16.4873 58.4138 17.6805 59.6066 19.1523 59.6066H19.3396C20.8117 59.6066 22.0045 58.4138 22.0045 56.9416C22.0045 55.4695 20.8113 54.2767 19.3396 54.2767Z" fill="#F30000"/>
<path d="M84.4491 80.1063C84.4491 80.5199 84.5454 80.9281 84.7306 81.2984L91.1571 94.1517C91.6087 95.0543 92.5311 95.6249 93.5406 95.6249C94.5501 95.6249 95.4729 95.0546 95.9242 94.1517L102.351 81.2984C102.536 80.9281 102.632 80.5199 102.632 80.1063V16.967C102.632 15.4948 101.44 14.302 99.9675 14.302H87.1141C85.642 14.302 84.4491 15.4948 84.4491 16.967V80.1063ZM89.7791 77.4413V28.2007H97.3025V77.4413H89.7791ZM97.3025 19.632V22.8708H89.7791V19.632H97.3025ZM93.5406 87.0007L91.4261 82.7716H95.6552L93.5406 87.0007Z" fill="#F30000"/>
</svg>
