<svg width="105" height="105" viewBox="0 0 105 105" fill="none" xmlns="http://www.w3.org/2000/svg">
<path d="M82.3351 84.7167H22.6693C20.0331 84.7167 17.8973 86.8525 17.8973 89.4888C17.8973 92.125 20.0331 94.263 22.6693 94.263H82.3307C84.9691 94.263 87.1049 92.125 87.1049 89.4888C87.1049 86.8525 84.9669 84.7167 82.3351 84.7167Z" fill="#F30000"/>
<path d="M16.7065 48.9176V60.8499C16.7065 62.8271 18.3106 64.4311 20.2856 64.4311C22.2627 64.4311 23.8668 62.8271 23.8668 60.8499V48.9176C23.8668 46.9405 22.2627 45.3386 20.2856 45.3386C18.3084 45.3409 16.7065 46.9427 16.7065 48.9176Z" fill="#F30000"/>
<path d="M28.6365 44.1479V60.8522C28.6365 62.8294 30.2406 64.4334 32.2178 64.4334C34.1927 64.4334 35.7968 62.8294 35.7968 60.8522V44.1479C35.7968 42.1707 34.1927 40.5667 32.2178 40.5667C30.2406 40.5667 28.6365 42.1707 28.6365 44.1479Z" fill="#F30000"/>
<path d="M40.5688 39.3737V60.85C40.5688 62.8272 42.1729 64.4312 44.1501 64.4312C46.125 64.4312 47.7291 62.8272 47.7291 60.85V39.3737C47.7291 37.3965 46.125 35.7924 44.1501 35.7924C42.1729 35.7924 40.5688 37.3965 40.5688 39.3737Z" fill="#F30000"/>
<path d="M100.228 10.7371H4.77425C2.13802 10.7371 0 12.8751 0 15.5113V75.1727C0 77.8089 2.13802 79.9469 4.77425 79.9469H95.8648C95.7263 79.8241 95.5677 79.7235 95.4381 79.5962L88.8319 72.9855C85.0228 75.1369 80.7087 76.2875 76.2875 76.2875C70.2599 76.2875 64.554 74.2098 59.9652 70.4051H9.54403V20.2811H95.456V33.7348C99.6024 38.4152 101.897 44.3579 101.897 50.6714C101.897 55.0927 100.749 59.4045 98.5993 63.2091L105 69.6143V15.5091C105.002 12.8751 102.864 10.7371 100.228 10.7371Z" fill="#F30000"/>
<path d="M94.6606 66.0264C94.1847 65.5483 93.5458 65.3539 92.9247 65.4209L91.9216 64.4178C95.2728 60.6109 97.1226 55.792 97.1226 50.6759C97.1226 45.1131 94.9577 39.8808 91.0257 35.9466C87.087 32.0034 81.857 29.8408 76.2875 29.8408C70.7268 29.8408 65.4968 32.0057 61.5603 35.9466C57.6194 39.8808 55.4523 45.1131 55.4523 50.6759C55.4523 56.2388 57.6239 61.4733 61.5603 65.4075C65.4968 69.3462 70.7268 71.5088 76.2875 71.5088C81.4102 71.5088 86.2269 69.6612 90.0293 66.3056L91.0369 67.3065C90.9699 67.9321 91.162 68.5643 91.6424 69.0469L98.8205 76.225C99.2383 76.6428 99.7834 76.8461 100.333 76.8461C100.876 76.8461 101.425 76.6405 101.845 76.225C102.677 75.3894 102.677 74.0378 101.845 73.2067L94.6606 66.0264ZM88.003 62.3803C84.8753 65.5103 80.7132 67.2395 76.2875 67.2395C71.8684 67.2395 67.7085 65.5148 64.5808 62.3848C61.4553 59.2593 59.7284 55.0972 59.7284 50.6737C59.7284 46.2524 61.4509 42.0926 64.5808 38.9648C67.7085 35.8349 71.8729 34.1102 76.2875 34.1102C80.7132 34.1102 84.8753 35.8326 88.003 38.9648C91.1263 42.0926 92.851 46.2524 92.851 50.6737C92.851 55.0972 91.1263 59.2526 88.003 62.3803Z" fill="#F30000"/>
</svg>
