<svg width="105" height="105" viewBox="0 0 105 105" fill="none" xmlns="http://www.w3.org/2000/svg">
<path d="M30.7576 51.9623C41.1634 51.9623 49.6292 43.4965 49.6292 33.0909C49.6292 22.6853 41.1634 14.2195 30.7576 14.2195C20.3518 14.2195 11.886 22.6851 11.886 33.0909C11.886 43.4967 20.3518 51.9623 30.7576 51.9623ZM30.7576 22.7044C36.4848 22.7044 41.1443 27.3638 41.1443 33.0909C41.1443 38.818 36.4848 43.4774 30.7576 43.4774C25.0303 43.4774 20.3708 38.8182 20.3708 33.0909C20.3708 27.3636 25.0303 22.7044 30.7576 22.7044Z" fill="#F30000"/>
<path d="M74.2424 51.9623C84.6482 51.9623 93.114 43.4965 93.114 33.0909C93.114 22.6853 84.6482 14.2195 74.2424 14.2195C63.8366 14.2195 55.3708 22.6853 55.3708 33.0909C55.3708 43.4965 63.8366 51.9623 74.2424 51.9623ZM74.2424 22.7044C79.9697 22.7044 84.6291 27.3638 84.6291 33.0909C84.6291 38.818 79.9697 43.4774 74.2424 43.4774C68.5152 43.4774 63.8557 38.8182 63.8557 33.0909C63.8557 27.3636 68.5152 22.7044 74.2424 22.7044Z" fill="#F30000"/>
<path d="M74.2424 55.7804C66.0238 55.7804 58.2124 59.0772 52.4907 64.7936C46.9218 59.2278 39.2344 55.7804 30.7576 55.7804C13.7978 55.7804 0 69.5782 0 86.538V90.7804H105V86.538C105 69.5782 91.2022 55.7804 74.2424 55.7804ZM8.89021 82.2956C10.8767 72.0365 19.9267 64.2652 30.7576 64.2652C41.5885 64.2652 50.6384 72.0365 52.6249 82.2956H8.89021ZM61.2237 82.2956C60.6955 78.4833 59.4663 74.8929 57.6702 71.6577C61.8707 66.9872 67.8892 64.2652 74.2424 64.2652C85.0733 64.2652 94.1233 72.0365 96.1098 82.2956H61.2237Z" fill="#F30000"/>
</svg>
