<svg width="84" height="81" viewBox="0 0 84 81" fill="none" xmlns="http://www.w3.org/2000/svg">
<ellipse cx="41.685" cy="40.2591" rx="41.685" ry="40.2591" fill="#E0DFDF"/>
<g clip-path="url(#clip0)">
<g clip-path="url(#clip1)">
<path d="M61.9188 50.3174C61.7471 47.9233 59.7504 45.9585 57.2743 45.7473C56.4652 45.678 55.6749 45.7888 54.9263 46.0756C54.6627 46.1764 54.3667 46.1642 54.1129 46.0417C53.8592 45.9191 53.6716 45.6979 53.5971 45.4334C52.9931 43.2882 50.9622 41.7898 48.6583 41.7898C46.3543 41.7898 44.3233 43.288 43.7193 45.4334C43.6448 45.6977 43.4572 45.919 43.2035 46.0417C42.9497 46.1642 42.6536 46.1764 42.3901 46.0756C41.7857 45.844 41.1544 45.7274 40.5076 45.7274C40.3533 45.7274 40.1981 45.734 40.0423 45.7473C37.566 45.9583 35.5693 47.9231 35.3976 50.3174C35.2979 51.7077 35.7818 53.0311 36.7604 54.0438C37.7397 55.0575 39.0692 55.6158 40.504 55.6158H56.8127C58.2475 55.6158 59.5771 55.0575 60.5565 54.0438C61.5346 53.0311 62.0185 51.7078 61.9188 50.3174Z" fill="#F30000"/>
<path d="M48.6584 39.865C51.5099 39.865 54.0606 41.5175 55.1769 43.9857C55.2831 43.9613 55.3899 43.9401 55.4969 43.9206C55.9562 43.7105 56.3768 43.4182 56.7367 43.0456C57.5174 42.2376 57.9034 41.1817 57.8239 40.0723C57.687 38.1623 56.094 36.595 54.1186 36.4265C53.4719 36.3715 52.8424 36.4594 52.2452 36.6883C51.9815 36.7894 51.6856 36.7771 51.4318 36.6546C51.1779 36.5321 50.9904 36.3108 50.9159 36.0463C50.4341 34.3347 48.8137 33.1394 46.9755 33.1394C45.4835 33.1394 44.1353 33.927 43.4226 35.1386C44.7081 36.6109 45.5048 38.4923 45.5713 40.549C46.5134 40.1093 47.5635 39.865 48.6584 39.865Z" fill="#F30000"/>
<path d="M39.867 43.8299C40.6395 43.7641 41.4006 43.8163 42.1397 43.9858C42.469 43.2577 42.9239 42.6014 43.4737 42.0367C43.5458 41.6439 43.5845 41.24 43.5845 40.8275C43.5845 37.0157 40.3736 33.9146 36.4268 33.9146C32.4799 33.9146 29.269 37.0157 29.269 40.8275C29.269 43.9075 31.3663 46.521 34.2532 47.4117C35.3667 45.442 37.4523 44.0356 39.867 43.8299Z" fill="#F30000"/>
<path d="M36.4266 30.3891C37.2129 30.3891 37.8503 29.7733 37.8503 29.0141V27.0451C37.8503 26.2858 37.2127 25.6702 36.4266 25.6702C35.6405 25.6702 35.0029 26.2859 35.0029 27.0451V29.0141C35.0029 29.7735 35.6403 30.3891 36.4266 30.3891Z" fill="#F30000"/>
<path d="M25.538 40.823C25.538 40.0636 24.9005 39.448 24.1144 39.448H22.0675C21.2813 39.4479 20.6438 40.0636 20.6438 40.823C20.6438 41.5823 21.2813 42.1979 22.0675 42.1979H24.1142C24.9005 42.1979 25.538 41.5822 25.538 40.823Z" fill="#F30000"/>
<path d="M26.7711 48.2078L25.3296 49.5999C24.7736 50.137 24.7736 51.0075 25.3296 51.5446C25.6077 51.813 25.972 51.9472 26.3364 51.9472C26.7008 51.9472 27.0651 51.813 27.3432 51.5446L28.7846 50.1524C29.3407 49.6154 29.3407 48.7448 28.7846 48.2078C28.2284 47.671 27.3272 47.671 26.7711 48.2078Z" fill="#F30000"/>
<path d="M27.3429 30.1092C26.7867 29.5723 25.8856 29.5723 25.3294 30.1092C24.7733 30.6463 24.7733 31.5168 25.3294 32.0539L26.771 33.446C27.049 33.7144 27.4134 33.8487 27.7778 33.8487C28.1421 33.8487 28.5065 33.7144 28.7845 33.446C29.3406 32.909 29.3406 32.0384 28.7845 31.5014L27.3429 30.1092Z" fill="#F30000"/>
</g>
</g>
<defs>
<clipPath id="clip0">
<rect width="41.4206" height="40.0037" fill="white" transform="translate(20.6438 20.7046)"/>
</clipPath>
<clipPath id="clip1">
<rect width="41.288" height="39.8757" fill="white" transform="translate(20.6438 20.7046)"/>
</clipPath>
</defs>
</svg>
