<svg width="110" height="31" viewBox="0 0 110 31" fill="none" xmlns="http://www.w3.org/2000/svg">
<rect width="110" height="31" rx="6" fill="#F30000"/>
<path d="M34.613 21.525H24.8098V19.2091L30.4958 11.5226H25.1086V9.16516H34.281V11.5226L28.6033 19.1676H34.613V21.525ZM40.9488 19.0929V17.1505C40.4563 17.2003 40.0579 17.2446 39.7535 17.2833C39.4492 17.3165 39.1503 17.3857 38.8571 17.4908C38.6025 17.5794 38.4033 17.715 38.2594 17.8976C38.121 18.0747 38.0519 18.3126 38.0519 18.6115C38.0519 19.0486 38.1681 19.3502 38.4005 19.5162C38.6385 19.6767 38.9871 19.757 39.4464 19.757C39.701 19.757 39.9611 19.6989 40.2267 19.5826C40.4923 19.4664 40.733 19.3032 40.9488 19.0929ZM40.9488 20.5372C40.7496 20.7032 40.5698 20.8527 40.4093 20.9855C40.2543 21.1183 40.0441 21.2511 39.7784 21.3839C39.5183 21.5112 39.2638 21.608 39.0148 21.6744C38.7713 21.7408 38.4282 21.774 37.9855 21.774C37.1609 21.774 36.4747 21.4974 35.9269 20.944C35.3846 20.3906 35.1134 19.6933 35.1134 18.8522C35.1134 18.1604 35.2517 17.6015 35.5284 17.1754C35.8051 16.7493 36.2036 16.4117 36.7238 16.1627C37.2495 15.9082 37.8776 15.7311 38.608 15.6315C39.3385 15.5319 40.1243 15.4544 40.9654 15.399V15.3492C40.9654 14.8346 40.7745 14.4804 40.3927 14.2867C40.0164 14.0875 39.4492 13.9879 38.691 13.9879C38.3479 13.9879 37.9467 14.0516 37.4874 14.1788C37.0281 14.3006 36.5799 14.4583 36.1427 14.652H35.8937V12.4025C36.1814 12.3195 36.6463 12.2226 37.2882 12.1119C37.9301 11.9957 38.5776 11.9376 39.2306 11.9376C40.8354 11.9376 42.003 12.206 42.7335 12.7428C43.4695 13.274 43.8375 14.0875 43.8375 15.1832V21.525H40.9488V20.5372ZM56.8721 21.525V16.8683C56.8721 16.409 56.8638 16.0216 56.8472 15.7062C56.8306 15.3907 56.7808 15.1334 56.6978 14.9342C56.6147 14.735 56.4847 14.5911 56.3076 14.5026C56.1361 14.4085 55.8926 14.3615 55.5771 14.3615C55.3558 14.3615 55.1372 14.4113 54.9214 14.5109C54.7056 14.6049 54.4704 14.7405 54.2158 14.9176V21.525H51.2939V16.8683C51.2939 16.4145 51.2829 16.0299 51.2607 15.7145C51.2441 15.3935 51.1943 15.1334 51.1113 14.9342C51.0283 14.735 50.8983 14.5911 50.7212 14.5026C50.5496 14.4085 50.3089 14.3615 49.999 14.3615C49.7611 14.3615 49.5286 14.4168 49.3018 14.5275C49.0749 14.6381 48.8535 14.7682 48.6377 14.9176V21.525H45.7324V12.2032H48.6377V13.2325C49.1136 12.8286 49.5618 12.5131 49.9824 12.2863C50.403 12.0594 50.8761 11.9459 51.4019 11.9459C51.9718 11.9459 52.4727 12.0815 52.9043 12.3527C53.3359 12.6238 53.6652 13.0278 53.8921 13.5646C54.451 13.0444 54.9767 12.646 55.4692 12.3693C55.9673 12.087 56.4709 11.9459 56.98 11.9459C57.4116 11.9459 57.799 12.0151 58.1421 12.1534C58.4852 12.2918 58.7757 12.4993 59.0137 12.776C59.2738 13.0748 59.4674 13.4318 59.5947 13.8468C59.7275 14.2563 59.7939 14.7931 59.7939 15.4572V21.525H56.8721ZM70.6454 16.8683C70.6454 18.4012 70.2248 19.6103 69.3837 20.4957C68.5481 21.3756 67.3638 21.8156 65.8309 21.8156C64.3091 21.8156 63.1249 21.3756 62.2782 20.4957C61.4371 19.6103 61.0165 18.4012 61.0165 16.8683C61.0165 15.3188 61.4371 14.1069 62.2782 13.2325C63.1249 12.3527 64.3091 11.9127 65.8309 11.9127C67.3583 11.9127 68.5425 12.3554 69.3837 13.2408C70.2248 14.1207 70.6454 15.3299 70.6454 16.8683ZM67.6654 16.8849C67.6654 16.3315 67.6184 15.8722 67.5243 15.507C67.4358 15.1362 67.3112 14.8401 67.1508 14.6188C66.9792 14.3864 66.7855 14.2259 66.5697 14.1373C66.3539 14.0433 66.1076 13.9962 65.8309 13.9962C65.5708 13.9962 65.3357 14.0377 65.1254 14.1207C64.9151 14.1982 64.7214 14.3504 64.5443 14.5773C64.3783 14.7931 64.2455 15.0892 64.1459 15.4655C64.0463 15.8418 63.9965 16.3149 63.9965 16.8849C63.9965 17.4549 64.0435 17.917 64.1376 18.2711C64.2317 18.6198 64.3534 18.8992 64.5028 19.1095C64.6578 19.3253 64.8514 19.483 65.0839 19.5826C65.3163 19.6823 65.5736 19.7321 65.8558 19.7321C66.0883 19.7321 66.3235 19.6823 66.5614 19.5826C66.8049 19.483 66.9986 19.3336 67.1425 19.1344C67.314 18.8964 67.4441 18.6115 67.5326 18.2794C67.6211 17.9419 67.6654 17.477 67.6654 16.8849ZM68.6947 7.61292L66.2045 10.8751H64.2289L65.9472 7.61292H68.6947ZM85.8215 12.2032L83.0989 21.525H80.011L78.3757 15.4987L76.7322 21.525H73.6443L70.9465 12.2032H74.0012L75.429 18.3707L77.197 12.2032H79.762L81.4304 18.3707L82.8333 12.2032H85.8215Z" fill="white"/>
</svg>
