<svg width="84" height="81" viewBox="0 0 84 81" fill="none" xmlns="http://www.w3.org/2000/svg">
<ellipse cx="41.685" cy="40.2591" rx="41.685" ry="40.2591" fill="#E0DFDF"/>
<g clip-path="url(#clip0)">
<g clip-path="url(#clip1)">
<path d="M58.8956 32.481C58.3546 31.857 57.391 31.7749 56.7448 32.2953L52.5103 35.7307L50.5629 31.071C50.4936 30.8961 50.3885 30.7492 50.2678 30.6197C49.8698 29.7646 49.179 29.0305 48.2265 28.6051C47.8129 28.4237 47.3859 28.3265 46.9588 28.279C46.8649 28.2315 46.78 28.1689 46.6727 28.1365L39.2208 26.1305C38.8027 26.0204 38.3824 26.0917 38.0381 26.286C37.629 26.4199 37.2779 26.7071 37.1103 27.1238L34.3044 34.0918C34.0003 34.8497 34.3893 35.7048 35.1763 36.0028C35.9588 36.2965 36.8464 35.9186 37.1527 35.1585L39.5227 29.2745L42.9166 30.1857C42.8338 30.3152 42.7444 30.4361 42.6773 30.5743L38.3265 39.6822C38.2639 39.8161 38.2304 39.9521 38.1857 40.0903L32.8981 48.6519L24.0489 51.5108C23.0472 52.2342 22.8348 53.5967 23.5749 54.5641C24.3194 55.5336 25.7346 55.7387 26.734 55.024L35.7889 52.0118C36.0662 51.8175 36.2674 51.5627 36.4194 51.2884C36.5334 51.1718 36.6631 51.079 36.7503 50.9343L39.9027 45.8297L45.4989 50.4355L39.5115 56.9522C38.6865 57.8505 38.7692 59.2346 39.7038 60.0292C40.6361 60.8303 42.0647 60.7461 42.8942 59.8435L50.3662 51.7138C50.5987 51.4633 50.7373 51.174 50.8312 50.8717C50.8871 50.7076 50.8871 50.537 50.9005 50.3664C50.9005 50.28 50.934 50.2023 50.9273 50.1224C50.9072 49.5264 50.6568 48.9478 50.1515 48.5353L45.0025 44.2945C45.3737 43.9533 45.6889 43.5474 45.917 43.0702L49.2527 36.0935L50.3214 38.8423C50.3662 39.0863 50.4511 39.326 50.63 39.5268C50.791 39.7125 50.9966 39.8355 51.2158 39.9219C51.2381 39.9327 51.2649 39.9349 51.2918 39.9413C51.4304 39.9889 51.5712 40.0342 51.7166 40.0407C51.8887 40.0558 52.0631 40.0342 52.2397 39.9867C52.2442 39.9845 52.2464 39.9845 52.2464 39.9845C52.2934 39.9737 52.3403 39.9824 52.3873 39.9629C52.6355 39.8723 52.8255 39.7189 52.9887 39.5397L59.0656 34.5582C59.7117 34.0335 59.4389 33.105 58.8956 32.481Z" fill="#F30000"/>
<path d="M51.2091 28.931C53.5614 28.931 55.4683 27.0893 55.4683 24.8176C55.4683 22.5458 53.5614 20.7041 51.2091 20.7041C48.8568 20.7041 46.95 22.5458 46.95 24.8176C46.95 27.0893 48.8568 28.931 51.2091 28.931Z" fill="#F30000"/>
</g>
</g>
<defs>
<clipPath id="clip0">
<rect width="41.4206" height="40.0037" fill="white" transform="translate(20.6436 20.7043)"/>
</clipPath>
<clipPath id="clip1">
<rect width="41.288" height="39.8756" fill="white" transform="translate(20.6436 20.7043)"/>
</clipPath>
</defs>
</svg>
