<svg width="84" height="81" viewBox="0 0 84 81" fill="none" xmlns="http://www.w3.org/2000/svg">
<ellipse cx="41.685" cy="40.2591" rx="41.685" ry="40.2591" fill="#E0DFDF"/>
<g clip-path="url(#clip0)">
<g clip-path="url(#clip1)">
<path d="M49.0885 38.0866H51.1529C51.5329 38.0866 51.8411 37.7891 51.8411 37.422V35.4283C51.8411 35.0612 51.5329 34.7637 51.1529 34.7637C50.7729 34.7637 50.4648 35.0612 50.4648 35.4283V36.7575H49.0885C48.7085 36.7575 48.4004 37.055 48.4004 37.422C48.4004 37.7891 48.7085 38.0866 49.0885 38.0866Z" fill="#F30000"/>
<path d="M32.8993 35.4283C34.4193 35.4283 35.6518 34.238 35.6518 32.7699C35.6518 31.3019 34.4193 30.1116 32.8993 30.1116C31.3789 30.1116 30.1467 31.3019 30.1467 32.7699C30.1467 34.238 31.3789 35.4283 32.8993 35.4283ZM32.8993 31.4408C33.6593 31.4408 34.2755 32.0359 34.2755 32.7699C34.2755 33.504 33.6593 34.0991 32.8993 34.0991C32.1389 34.0991 31.523 33.504 31.523 32.7699C31.523 32.0359 32.1389 31.4408 32.8993 31.4408Z" fill="#F30000"/>
<path d="M17.8677 35.2075C18.159 35.3529 18.4826 35.4285 18.8105 35.4281C19.6865 35.4281 20.4657 34.8911 20.7509 34.0908L26.1626 34.01L25.2184 34.7635C24.9583 34.9699 24.8911 35.3275 25.0595 35.6089L26.3454 37.7542L26.3736 40.7449H22.9393C22.899 40.7488 22.859 40.7566 22.82 40.7683C22.4951 39.8444 21.5257 39.2833 20.5288 39.4423C19.5322 39.6013 18.8011 40.4337 18.8011 41.4095C18.8011 42.3853 19.5322 43.2176 20.5288 43.3767C21.5257 43.5357 22.4951 42.9746 22.82 42.0507C22.859 42.0624 22.899 42.0702 22.9393 42.0741H27.0681C27.2516 42.0741 27.4276 42.0033 27.5567 41.8774C27.686 41.7515 27.7579 41.5808 27.7562 41.4036L27.7247 38.0352L29.9265 37.2379C30.076 37.3314 30.2279 37.4167 30.3814 37.4943L30.8458 40.1887C30.9012 40.509 31.1885 40.7439 31.5252 40.7436H31.885V44.0666H29.8206C29.4406 44.0666 29.1325 44.3641 29.1325 44.7311V54.4262L23.1409 60.2128C22.944 60.403 22.8852 60.6889 22.9917 60.9371C23.0982 61.1854 23.3492 61.3473 23.6274 61.3473H45.6477C45.9259 61.3473 46.1769 61.1854 46.2831 60.9371C46.3896 60.6889 46.3308 60.403 46.1342 60.2128L41.5189 55.7554V52.227L43.0595 49.7487C45.6588 51.2635 47.2303 52.043 47.7121 52.043H51.8409C52.2209 52.043 52.529 51.7454 52.529 51.3784V47.666L53.703 46.5322C53.8317 46.4072 53.9046 46.2382 53.9053 46.0616V44.0679H54.9106C55.3763 44.0679 55.8108 43.8404 56.0648 43.463C56.3185 43.0859 56.3578 42.6102 56.1686 42.199L54.029 37.5469C54.8411 36.6129 55.2846 35.432 55.2816 34.2125C55.297 29.8138 52.7216 25.7896 48.6412 23.8357L46.6453 22.8706C46.3426 22.7249 45.975 22.8132 45.7784 23.0793L45.4901 23.4655H40.8308V22.1363C40.8308 21.7693 40.5227 21.4717 40.1426 21.4717H33.2613C32.8813 21.4717 32.5732 21.7693 32.5732 22.1363V24.7946H31.5232C31.1865 24.7943 30.8989 25.0296 30.8438 25.3502L30.3794 28.0439C30.2259 28.1215 30.0737 28.2065 29.9245 28.3003L27.2744 27.3414C26.9596 27.2272 26.6054 27.3498 26.4371 27.6312L25.7432 28.7923C25.7254 28.7923 25.711 28.7822 25.6932 28.7822H21.563V26.6661C22.5109 26.3426 23.0794 25.4063 22.9094 24.4494C22.7394 23.4921 21.8802 22.7928 20.8749 22.7928C19.8692 22.7928 19.0101 23.4921 18.8401 24.4494C18.6701 25.4063 19.2389 26.3426 20.1868 26.6661V29.4468C20.1868 29.8138 20.4949 30.1114 20.8749 30.1114H24.9933C24.9301 30.3564 25.0175 30.6144 25.2184 30.776L27.4011 32.5118C27.4011 32.5605 27.4011 32.6101 27.3971 32.6594L20.7482 32.7584C20.4357 31.916 19.58 31.3776 18.6556 31.4425C17.7313 31.5071 16.9648 32.1587 16.7814 33.0359C16.5976 33.9133 17.0418 34.8012 17.8677 35.2075V35.2075ZM20.8749 42.0741C20.4949 42.0741 20.1868 41.7765 20.1868 41.4095C20.1868 41.0425 20.4949 40.7449 20.8749 40.7449C21.2549 40.7449 21.563 41.0425 21.563 41.4095C21.563 41.7765 21.2549 42.0741 20.8749 42.0741ZM20.8749 24.1301C21.2549 24.1301 21.563 24.4276 21.563 24.7946C21.563 25.1617 21.2549 25.4592 20.8749 25.4592C20.4949 25.4592 20.1868 25.1617 20.1868 24.7946C20.1868 24.4276 20.4949 24.1301 20.8749 24.1301ZM33.2613 40.7449H34.2757C34.6117 40.7449 34.8986 40.5103 34.9541 40.19L35.4191 37.4956C35.572 37.4187 35.7242 37.333 35.8734 37.2392L38.5248 38.1981C38.8396 38.3124 39.1938 38.1897 39.3621 37.9084L39.6534 37.4219H42.8952C42.9459 37.418 42.996 37.4083 43.0444 37.3927L44.2714 38.9724V40.0803H41.5189V41.4095H43.1065L41.2635 42.1211C41.0021 42.222 40.8304 42.4667 40.8308 42.7387V44.0679H33.2613V40.7449ZM40.7384 29.9332L40.4481 29.4468H42.207V32.1052H38.9115L40.5801 30.776C40.8385 30.5696 40.905 30.2139 40.7384 29.9332ZM42.207 33.4344V36.0927H40.4481L40.7384 35.6063C40.905 35.3256 40.8385 34.9699 40.5801 34.7635L38.9115 33.4344H42.207ZM37.5917 49.8545L40.1426 52.3182V52.7076H36.0138V45.397H37.3901V49.3846C37.3901 49.5608 37.4627 49.7299 37.5917 49.8545ZM33.2297 58.6889H33.2613V58.6545L35.8438 55.804C35.9537 55.6827 36.0138 55.5269 36.0138 55.3659V54.0368H37.3901V60.0181H32.0225L33.2297 58.6889ZM25.2886 60.0181L30.3072 55.1712C30.4362 55.0466 30.5088 54.8776 30.5088 54.7013V45.397H34.6376V55.1161L33.2613 56.6354V53.3722H31.885V58.1574L30.1963 60.0181H25.2886ZM43.9865 60.0181H38.7664V54.0368H40.1426V56.0305C40.1426 56.2067 40.2152 56.3758 40.3442 56.5004L43.9865 60.0181ZM40.693 50.9718L38.7664 49.1107V45.397H40.8308V48.0554C40.8308 48.2845 40.9531 48.4974 41.154 48.6191C41.4107 48.7745 41.6426 48.9115 41.8848 49.0555L40.693 50.9718ZM46.5539 24.3134L48.0253 25.0247C51.6383 26.7544 53.9188 30.3178 53.9053 34.2125C53.9083 35.2406 53.4853 36.2271 52.7306 36.952C52.5294 37.1464 52.4726 37.4404 52.5882 37.6916L54.9106 42.7387H53.2172C52.8372 42.7387 52.529 43.0362 52.529 43.4033V45.397H52.4108C51.3463 45.4 50.3252 44.9914 49.5749 44.2626C49.3048 44.0107 48.8757 44.0143 48.6102 44.2707C48.3448 44.527 48.3411 44.9414 48.6018 45.2023C49.4173 45.9925 50.4764 46.5056 51.6198 46.6646L51.3544 46.9209C51.2254 47.0455 51.1528 47.2146 51.1528 47.3908V50.7138L47.7773 50.7177C46.1877 50.0077 44.6525 49.1879 43.1841 48.2654L43.1808 48.2621H43.1764C42.8525 48.072 42.5276 47.8792 42.207 47.6871V43.1884L45.2149 42.027C45.4764 41.9261 45.6477 41.6814 45.6477 41.4095V38.7511C45.6477 38.6073 45.5993 38.4675 45.51 38.3523L43.5833 35.8714V28.3302L46.5539 24.3134ZM33.9494 22.8009H39.4545V24.1301C39.4545 24.4971 39.7626 24.7946 40.1426 24.7946H44.5073L42.3357 27.7314C42.2517 27.8441 42.2067 27.979 42.207 28.1176H39.6534L39.3621 27.6312C39.1938 27.3498 38.8396 27.2272 38.5248 27.3414L35.8761 28.3003C35.7269 28.2065 35.5747 28.1209 35.4218 28.0439L34.9541 25.3496C34.8986 25.0293 34.6117 24.7946 34.2757 24.7946H33.9494V22.8009ZM26.5429 30.1114L27.3362 28.7822L29.78 29.6668C29.9994 29.746 30.2453 29.7122 30.4328 29.5769C30.6919 29.3884 30.9731 29.23 31.2705 29.1051C31.4859 29.0159 31.6394 28.8267 31.6777 28.6034L32.1058 26.1238H33.6927L34.1208 28.6041C34.1591 28.8273 34.3127 29.0165 34.528 29.1057C34.8254 29.231 35.1063 29.3894 35.3657 29.5776C35.5532 29.7129 35.7988 29.7466 36.0179 29.6675L38.4623 28.7822L39.2549 30.1114L37.2419 31.7112C37.0612 31.855 36.9684 32.0782 36.9963 32.3031C37.0387 32.6134 37.0387 32.9275 36.9963 33.2377C36.9684 33.4626 37.0612 33.6859 37.2419 33.8299L39.2549 35.4281L38.4623 36.7573L36.0179 35.8727C35.7988 35.7935 35.5532 35.8273 35.3657 35.9626C35.1063 36.1508 34.8254 36.3092 34.528 36.4344C34.3127 36.5237 34.1591 36.7129 34.1208 36.9361L33.6927 39.4157H32.1051L31.6784 36.9355C31.6401 36.7122 31.4865 36.523 31.2712 36.4338C30.9738 36.3089 30.6926 36.1505 30.4338 35.962C30.246 35.8266 30.0001 35.7926 29.7807 35.8721L27.3362 36.7573L26.5429 35.4281L28.5559 33.8283C28.568 33.817 28.5798 33.8046 28.5909 33.792C28.6043 33.7796 28.6167 33.767 28.6288 33.7534C28.6806 33.6995 28.7222 33.6375 28.7525 33.57L28.7569 33.5625C28.7854 33.4895 28.8005 33.4116 28.8009 33.3334C28.8032 33.324 28.8052 33.3143 28.8062 33.3049C28.8062 33.2968 28.8022 33.2903 28.8015 33.2822C28.8009 33.2741 28.8015 33.2517 28.8015 33.2364C28.7592 32.9262 28.7592 32.6121 28.8015 32.3018C28.8291 32.0769 28.7364 31.8537 28.5553 31.7096L26.5429 30.1114ZM18.1986 33.1306C18.2806 32.9719 18.4258 32.8522 18.6005 32.7983C18.9526 32.7117 19.3138 32.9044 19.4254 33.2387C19.5369 33.5726 19.3599 33.9328 19.0219 34.061C18.66 34.1733 18.2722 33.9812 18.156 33.6317C18.1012 33.4658 18.1163 33.2857 18.1986 33.1306Z" fill="#F30000"/>
<path d="M31.8848 48.0554H33.261V49.3846H31.8848V48.0554Z" fill="#F30000"/>
<path d="M31.8848 50.7139H33.261V52.0431H31.8848V50.7139Z" fill="#F30000"/>
<path d="M36.0137 40.0803H37.3899V41.4095H36.0137V40.0803Z" fill="#F30000"/>
<path d="M38.7664 40.0803H40.1426V41.4095H38.7664V40.0803Z" fill="#F30000"/>
<path d="M44.9595 28.1179H46.3357V30.7763H44.9595V28.1179Z" fill="#F30000"/>
<path d="M44.9595 32.1055H46.3357V33.4347H44.9595V32.1055Z" fill="#F30000"/>
<path d="M44.9595 34.7637H46.3357V36.0929H44.9595V34.7637Z" fill="#F30000"/>
</g>
</g>
<defs>
<clipPath id="clip0">
<rect width="41.4206" height="40.0037" fill="white" transform="translate(15.8801 21.4717)"/>
</clipPath>
<clipPath id="clip1">
<rect width="41.288" height="39.8756" fill="white" transform="translate(15.8801 21.4717)"/>
</clipPath>
</defs>
</svg>
