<svg width="210" height="105" viewBox="0 0 210 105" fill="none" xmlns="http://www.w3.org/2000/svg">
<ellipse cx="105" cy="52.5" rx="105" ry="52.5" fill="#E0DFDF"/>
<g clip-path="url(#clip0)">
<path d="M123.824 48.6666H126.424C126.903 48.6666 127.291 48.2785 127.291 47.7999V45.1999C127.291 44.7213 126.903 44.3333 126.424 44.3333C125.945 44.3333 125.557 44.7213 125.557 45.1999V46.9333H123.824C123.345 46.9333 122.957 47.3213 122.957 47.7999C122.957 48.2785 123.345 48.6666 123.824 48.6666Z" fill="#F30000"/>
<path d="M103.435 45.1999C105.349 45.1999 106.901 43.6477 106.901 41.7333C106.901 39.8188 105.349 38.2666 103.435 38.2666C101.52 38.2666 99.968 39.8188 99.968 41.7333C99.968 43.6477 101.52 45.1999 103.435 45.1999ZM103.435 39.9999C104.392 39.9999 105.168 40.776 105.168 41.7333C105.168 42.6905 104.392 43.4666 103.435 43.4666C102.477 43.4666 101.701 42.6905 101.701 41.7333C101.701 40.776 102.477 39.9999 103.435 39.9999Z" fill="#F30000"/>
<path d="M84.5032 44.9122C84.8701 45.1018 85.2776 45.2004 85.6906 45.2C86.7939 45.2 87.7752 44.4996 88.1345 43.4561L94.9502 43.3507L93.7611 44.3333C93.4335 44.6025 93.3489 45.0688 93.5609 45.4357L95.1804 48.2333L95.2159 52.1333H90.8906C90.8399 52.1384 90.7895 52.1486 90.7404 52.1638C90.3312 50.959 89.1103 50.2273 87.8548 50.4347C86.5996 50.6421 85.6788 51.7275 85.6788 53C85.6788 54.2725 86.5996 55.3579 87.8548 55.5653C89.1103 55.7727 90.3312 55.041 90.7404 53.8362C90.7895 53.8514 90.8399 53.8616 90.8906 53.8667H96.0906C96.3217 53.8667 96.5434 53.7744 96.7059 53.6102C96.8689 53.446 96.9594 53.2234 96.9573 52.9924L96.9175 48.5998L99.6906 47.5601C99.8789 47.6819 100.07 47.7932 100.264 47.8944L100.848 51.408C100.918 51.8257 101.28 52.1321 101.704 52.1316H102.157V56.465H99.5573C99.0787 56.465 98.6906 56.853 98.6906 57.3316V69.9745L91.1446 77.5206C90.8966 77.7686 90.8225 78.1414 90.9567 78.4651C91.0908 78.7888 91.4069 79 91.7573 79H119.491C119.841 79 120.157 78.7888 120.291 78.4651C120.425 78.1414 120.351 77.7686 120.103 77.5206L114.291 71.7078V67.1066L116.231 63.8748C119.505 65.8502 121.484 66.8667 122.091 66.8667H127.291C127.769 66.8667 128.157 66.4786 128.157 66V61.1589L129.636 59.6803C129.798 59.5174 129.89 59.2969 129.891 59.0667V56.4667H131.157C131.743 56.4667 132.29 56.17 132.61 55.6779C132.93 55.1861 132.979 54.5658 132.741 54.0296L130.046 47.9629C131.069 46.745 131.628 45.2051 131.624 43.6148C131.643 37.8786 128.4 32.6308 123.261 30.0828L120.747 28.8243C120.366 28.6343 119.903 28.7494 119.655 29.0964L119.292 29.6H113.424V27.8667C113.424 27.3881 113.036 27 112.557 27H103.891C103.412 27 103.024 27.3881 103.024 27.8667V31.3333H101.702C101.278 31.3329 100.915 31.6397 100.846 32.0578L100.261 35.5706C100.068 35.6717 99.876 35.7826 99.6881 35.9049L96.3505 34.6544C95.954 34.5055 95.5079 34.6654 95.2959 35.0323L94.4221 36.5465C94.3996 36.5465 94.3814 36.5333 94.359 36.5333H89.1573V33.7738C90.3511 33.3519 91.0671 32.131 90.853 30.8831C90.6389 29.6347 89.5568 28.7228 88.2906 28.7228C87.0241 28.7228 85.942 29.6347 85.7279 30.8831C85.5138 32.131 86.2302 33.3519 87.424 33.7738V37.4C87.424 37.8786 87.812 38.2667 88.2906 38.2667H93.4775C93.398 38.5862 93.508 38.9226 93.7611 39.1333L96.51 41.3969C96.51 41.4604 96.51 41.5251 96.5049 41.5895L88.1311 41.7185C87.7376 40.62 86.6597 39.9179 85.4956 40.0025C84.3314 40.0868 83.3661 40.9365 83.1351 42.0803C82.9036 43.2246 83.463 44.3824 84.5032 44.9122V44.9122ZM88.2906 53.8667C87.812 53.8667 87.424 53.4786 87.424 53C87.424 52.5214 87.812 52.1333 88.2906 52.1333C88.7693 52.1333 89.1573 52.5214 89.1573 53C89.1573 53.4786 88.7693 53.8667 88.2906 53.8667ZM88.2906 30.4667C88.7693 30.4667 89.1573 30.8547 89.1573 31.3333C89.1573 31.8119 88.7693 32.2 88.2906 32.2C87.812 32.2 87.424 31.8119 87.424 31.3333C87.424 30.8547 87.812 30.4667 88.2906 30.4667ZM103.891 52.1333H105.168C105.591 52.1333 105.953 51.8274 106.023 51.4097L106.608 47.8961C106.801 47.7958 106.993 47.684 107.18 47.5618L110.52 48.8122C110.916 48.9612 111.362 48.8012 111.574 48.4343L111.941 47.8H116.024C116.088 47.7949 116.151 47.7822 116.212 47.7619L117.757 49.8219V51.2667H114.291V53H116.29L113.969 53.928C113.64 54.0596 113.424 54.3787 113.424 54.7333V56.4667H103.891V52.1333ZM113.308 38.0343L112.942 37.4H115.157V40.8667H111.007L113.108 39.1333C113.434 38.8642 113.518 38.4004 113.308 38.0343ZM115.157 42.6V46.0667H112.942L113.308 45.4323C113.518 45.0663 113.434 44.6025 113.108 44.3333L111.007 42.6H115.157ZM109.345 64.0128L112.557 67.2255V67.7333H107.357V58.2H109.091V63.4C109.091 63.6298 109.182 63.8503 109.345 64.0128ZM103.851 75.5333H103.891V75.4885L107.143 71.7713C107.282 71.613 107.357 71.4099 107.357 71.2V69.4667H109.091V77.2667H102.33L103.851 75.5333ZM93.8495 77.2667L100.17 70.9461C100.333 70.7836 100.424 70.5631 100.424 70.3333V58.2H105.624V70.8742L103.891 72.8555V68.6H102.157V74.8402L100.03 77.2667H93.8495ZM117.398 77.2667H110.824V69.4667H112.557V72.0667C112.557 72.2965 112.649 72.5169 112.811 72.6794L117.398 77.2667ZM113.25 65.4698L110.824 63.0428V58.2H113.424V61.6667C113.424 61.9654 113.578 62.243 113.831 62.4017C114.154 62.6044 114.446 62.783 114.751 62.9709L113.25 65.4698ZM120.632 30.7058L122.485 31.6334C127.035 33.8889 129.908 38.5358 129.891 43.6148C129.894 44.9554 129.362 46.2419 128.411 47.1872C128.158 47.4407 128.086 47.8241 128.232 48.1517L131.157 54.7333H129.024C128.545 54.7333 128.157 55.1214 128.157 55.6V58.2H128.008C126.668 58.2038 125.382 57.671 124.437 56.7206C124.097 56.3922 123.556 56.3968 123.222 56.7312C122.887 57.0655 122.883 57.6059 123.211 57.9461C124.238 58.9765 125.572 59.6456 127.012 59.8529L126.678 60.1872C126.515 60.3497 126.424 60.5702 126.424 60.8V65.1333L122.173 65.1384C120.171 64.2125 118.237 63.1436 116.388 61.9405L116.384 61.9362H116.378C115.97 61.6882 115.561 61.4369 115.157 61.1864V55.3199L118.946 53.8053C119.275 53.6737 119.491 53.3546 119.491 53V49.5333C119.491 49.3459 119.43 49.1635 119.317 49.0132L116.891 45.7781V35.9438L120.632 30.7058ZM104.757 28.7333H111.691V30.4667C111.691 30.9453 112.079 31.3333 112.557 31.3333H118.054L115.319 35.1631C115.214 35.3099 115.157 35.486 115.157 35.6667H111.941L111.574 35.0323C111.362 34.6654 110.916 34.5055 110.52 34.6544L107.184 35.9049C106.996 35.7826 106.804 35.6709 106.612 35.5706L106.023 32.057C105.953 31.6393 105.591 31.3333 105.168 31.3333H104.757V28.7333ZM95.4292 38.2667L96.4283 36.5333L99.5061 37.6869C99.7824 37.7902 100.092 37.7462 100.328 37.5697C100.655 37.3238 101.009 37.1173 101.383 36.9544C101.655 36.838 101.848 36.5913 101.896 36.3002L102.435 33.0667H104.434L104.973 36.301C105.021 36.5922 105.215 36.8389 105.486 36.9552C105.861 37.1186 106.214 37.3251 106.541 37.5705C106.777 37.747 107.086 37.791 107.362 37.6878L110.441 36.5333L111.439 38.2667L108.904 40.3529C108.676 40.5404 108.56 40.8315 108.595 41.1248C108.648 41.5294 108.648 41.939 108.595 42.3436C108.56 42.6368 108.676 42.928 108.904 43.1159L111.439 45.2L110.441 46.9333L107.362 45.7798C107.086 45.6765 106.777 45.7205 106.541 45.897C106.214 46.1424 105.861 46.3489 105.486 46.5123C105.215 46.6286 105.021 46.8754 104.973 47.1665L104.434 50.4H102.434L101.897 47.1657C101.849 46.8745 101.655 46.6278 101.384 46.5114C101.01 46.3485 100.655 46.142 100.33 45.8961C100.093 45.7197 99.7833 45.6752 99.507 45.7789L96.4283 46.9333L95.4292 45.2L97.9645 43.1137C97.9797 43.0989 97.9945 43.0828 98.0085 43.0663C98.0254 43.0503 98.0411 43.0338 98.0563 43.016C98.1215 42.9457 98.1739 42.8649 98.212 42.7769L98.2175 42.7672C98.2535 42.6719 98.2725 42.5704 98.273 42.4684C98.2759 42.4561 98.2785 42.4434 98.2797 42.4312C98.2797 42.4206 98.2747 42.4121 98.2738 42.4015C98.273 42.391 98.2738 42.3618 98.2738 42.3419C98.2205 41.9373 98.2205 41.5277 98.2738 41.1231C98.3085 40.8299 98.1917 40.5387 97.9636 40.3508L95.4292 38.2667ZM84.92 42.2039C85.0233 41.997 85.2061 41.8408 85.4262 41.7706C85.8696 41.6576 86.3246 41.909 86.4651 42.3448C86.6056 42.7803 86.3825 43.25 85.9568 43.4172C85.5011 43.5636 85.0127 43.3131 84.8663 42.8573C84.7973 42.641 84.8164 42.4062 84.92 42.2039Z" fill="#F30000"/>
<path d="M102.157 61.6667H103.891V63.4001H102.157V61.6667Z" fill="#F30000"/>
<path d="M102.157 65.1333H103.891V66.8666H102.157V65.1333Z" fill="#F30000"/>
<path d="M107.357 51.2666H109.091V52.9999H107.357V51.2666Z" fill="#F30000"/>
<path d="M110.824 51.2666H112.557V52.9999H110.824V51.2666Z" fill="#F30000"/>
<path d="M118.624 35.6667H120.357V39.1334H118.624V35.6667Z" fill="#F30000"/>
<path d="M118.624 40.8667H120.357V42.6H118.624V40.8667Z" fill="#F30000"/>
<path d="M118.624 44.3333H120.357V46.0666H118.624V44.3333Z" fill="#F30000"/>
</g>
<defs>
<clipPath id="clip0">
<rect width="52" height="52" fill="white" transform="translate(82 27)"/>
</clipPath>
</defs>
</svg>
