<svg width="84" height="81" viewBox="0 0 84 81" fill="none" xmlns="http://www.w3.org/2000/svg">
<ellipse cx="41.685" cy="40.2591" rx="41.685" ry="40.2591" fill="#E0DFDF"/>
<g clip-path="url(#clip0)">
<g clip-path="url(#clip1)">
<path d="M58.5697 36.8478L53.1051 21.8187C52.8625 21.1515 52.2102 20.7051 51.478 20.7051C50.7458 20.7051 50.0935 21.1515 49.8511 21.8187L44.3865 36.8477C43.5683 39.0979 43.918 41.5043 45.3459 43.4502C46.7738 45.3959 49.0087 46.5119 51.4781 46.5119C53.9475 46.5119 56.1827 45.3959 57.6105 43.4501C59.0382 41.5044 59.3878 39.0979 58.5697 36.8478ZM54.7966 41.5242C54.0238 42.5771 52.8144 43.1811 51.4781 43.1811C50.1419 43.1811 48.9324 42.5773 48.1597 41.5243C47.3871 40.4713 47.1979 39.1689 47.6405 37.9513L51.4781 27.3969L55.3158 37.9513C55.7584 39.1691 55.5692 40.4712 54.7966 41.5242Z" fill="#F30000"/>
<path d="M40.0254 39.6756C39.7829 39.0085 39.1305 38.562 38.3984 38.562C37.6664 38.562 37.014 39.0085 36.7715 39.6756L32.2281 52.1714C31.5266 54.1006 31.8386 56.2482 33.0627 57.9163C34.2868 59.5844 36.2815 60.5804 38.3986 60.5804C40.5156 60.5804 42.5103 59.5844 43.7344 57.9163C44.9584 56.2482 45.2704 54.1006 44.569 52.1714L40.0254 39.6756ZM40.9204 55.9904C40.3331 56.7906 39.4139 57.2496 38.3983 57.2496C37.3828 57.2496 36.4636 56.7906 35.8763 55.9904C35.2892 55.1902 35.1454 54.2005 35.4817 53.2751L38.3982 45.2541L41.3147 53.2751C41.6514 54.2005 41.5076 55.1902 40.9204 55.9904Z" fill="#F30000"/>
<path d="M33.1415 38.1646C34.128 36.8203 34.3795 35.0896 33.8143 33.535L30.4687 24.3338C30.2262 23.6667 29.5738 23.2202 28.8417 23.2202C28.1096 23.2202 27.4572 23.6667 27.2148 24.3338L23.8691 33.535C23.3039 35.0896 23.5554 36.8203 24.5419 38.1646C25.5283 39.5088 27.1358 40.3114 28.8417 40.3114C30.5476 40.3114 32.1551 39.5088 33.1415 38.1646ZM30.3278 36.2385C29.9818 36.7101 29.4401 36.9805 28.8417 36.9805C28.2433 36.9805 27.7016 36.7101 27.3556 36.2385C27.0096 35.767 26.9248 35.1837 27.1231 34.6385L28.8417 29.9122L30.5603 34.6385C30.7586 35.1837 30.6737 35.767 30.3278 36.2385Z" fill="#F30000"/>
</g>
</g>
<defs>
<clipPath id="clip0">
<rect width="41.4206" height="40.0037" fill="white" transform="translate(20.6438 20.7048)"/>
</clipPath>
<clipPath id="clip1">
<rect width="41.288" height="39.8757" fill="white" transform="translate(20.6438 20.7048)"/>
</clipPath>
</defs>
</svg>
